<svg xmlns="http://www.w3.org/2000/svg" viewBox="-344 -839 549 427" width="549" height="427" role="img" aria-labelledby="t d" font-family="DejaVu Sans, Verdana, Arial, sans-serif">
<title id="t">Ventas, clientes, productos y proveedores</title><desc id="d">CLIENTE compra PRODUCTO (N:M). PROVEEDOR suministra PRODUCTO (1:N).</desc>
<rect x="-344" y="-839" width="549" height="427" rx="10" fill="#ffffff" stroke="#cbd5e1"/>
<g stroke="#1f2937" stroke-width="1.4" fill="none"><line x1="84.4" y1="-523.4" x2="107.7" y2="-519.6"/><line x1="56.6" y1="-510.0" x2="76.7" y2="-488.2"/><line x1="31.7" y1="-510.0" x2="19.3" y2="-463.7"/><line x1="0.9" y1="-510.0" x2="-40.6" y2="-486.0"/><line x1="-9.8" y1="-526.4" x2="-72.1" y2="-520.3"/><line x1="-71.8" y1="-717.9" x2="-83.4" y2="-701.8"/><line x1="-58.9" y1="-759.9" x2="-61.5" y2="-786.7"/><line x1="-11.8" y1="-759.9" x2="11.8" y2="-770.9"/><line x1="-98.4" y1="-582.5" x2="-83.4" y2="-565.0"/><line x1="-146.5" y1="-582.5" x2="-167.8" y2="-567.6"/><line x1="-86.5" y1="-624.5" x2="-65.2" y2="-639.4"/><line x1="71.0" y1="-637.7" x2="43.9" y2="-552.0"/><line x1="71.0" y1="-705.7" x2="0.9" y2="-723.9"/><line x1="-207.3" y1="-708.3" x2="-134.7" y2="-624.5"/><line x1="-207.3" y1="-776.3" x2="-114.5" y2="-753.2"/></g>
<rect x="-9.8" y="-552.0" width="94.2" height="42.0" fill="#ffffff" stroke="#111111" stroke-width="1.8"/>
<rect x="-114.5" y="-759.9" width="115.4" height="42.0" fill="#ffffff" stroke="#111111" stroke-width="1.8"/>
<rect x="-178.5" y="-624.5" width="123.9" height="42.0" fill="#ffffff" stroke="#111111" stroke-width="1.8"/>
<polygon points="71.0,-637.7 92.0,-671.7 50.0,-671.7" fill="#111111" stroke="none"/>
<polygon points="71.0,-705.7 92.0,-671.7 50.0,-671.7" fill="#111111" stroke="none"/>
<polygon points="71.0,-637.7 92.0,-671.7 71.0,-705.7 50.0,-671.7" fill="none" stroke="#111111" stroke-width="1.8" stroke-linejoin="round"/>
<line x1="92.0" y1="-671.7" x2="50.0" y2="-671.7" stroke="#111111" stroke-width="1"/>
<polygon points="-207.3,-708.3 -186.3,-742.3 -228.3,-742.3" fill="#ffffff" stroke="none"/>
<polygon points="-207.3,-776.3 -186.3,-742.3 -228.3,-742.3" fill="#111111" stroke="none"/>
<polygon points="-207.3,-708.3 -186.3,-742.3 -207.3,-776.3 -228.3,-742.3" fill="none" stroke="#111111" stroke-width="1.8" stroke-linejoin="round"/>
<line x1="-186.3" y1="-742.3" x2="-228.3" y2="-742.3" stroke="#111111" stroke-width="1"/>
<ellipse cx="142.6" cy="-513.9" rx="38.2" ry="14.0" fill="#ffffff" stroke="#111111" stroke-width="1.4"/>
<ellipse cx="88.7" cy="-475.1" rx="34.2" ry="14.0" fill="#ffffff" stroke="#111111" stroke-width="1.4"/>
<ellipse cx="15.5" cy="-449.8" rx="27.0" ry="14.0" fill="#ffffff" stroke="#111111" stroke-width="1.4"/>
<ellipse cx="-61.0" cy="-474.3" rx="37.8" ry="14.0" fill="#ffffff" stroke="#111111" stroke-width="1.4"/>
<ellipse cx="-130.5" cy="-514.5" rx="64.1" ry="14.0" fill="#ffffff" stroke="#111111" stroke-width="1.4"/>
<ellipse cx="-93.0" cy="-688.4" rx="34.2" ry="14.0" fill="#ffffff" stroke="#111111" stroke-width="1.4"/>
<ellipse cx="-62.9" cy="-800.7" rx="30.9" ry="14.0" fill="#ffffff" stroke="#111111" stroke-width="1.4"/>
<ellipse cx="38.2" cy="-783.2" rx="55.6" ry="14.0" fill="#ffffff" stroke="#111111" stroke-width="1.4"/>
<ellipse cx="-72.3" cy="-552.2" rx="27.0" ry="14.0" fill="#ffffff" stroke="#111111" stroke-width="1.4"/>
<ellipse cx="-185.5" cy="-555.2" rx="38.2" ry="14.0" fill="#ffffff" stroke="#111111" stroke-width="1.4"/>
<ellipse cx="-48.0" cy="-651.5" rx="34.2" ry="14.0" fill="#ffffff" stroke="#111111" stroke-width="1.4"/>
<rect x="33.5" y="-587.7" width="37.8" height="17" rx="3" fill="#ffffff" opacity="0.94"/><text x="52.4" y="-574.2" font-size="12" fill="#1e3a8a" text-anchor="middle" font-weight="700">(0,N)</text>
<text x="61.0" y="-624.7" font-size="11" fill="#111111" text-anchor="middle">N</text>
<rect x="9.1" y="-725.9" width="37.8" height="17" rx="3" fill="#ffffff" opacity="0.94"/><text x="28.0" y="-712.4" font-size="12" fill="#1e3a8a" text-anchor="middle" font-weight="700">(0,N)</text>
<text x="81.0" y="-710.7" font-size="11" fill="#111111" text-anchor="middle">N</text>
<rect x="-171.3" y="-654.6" width="36.5" height="17" rx="3" fill="#ffffff" opacity="0.94"/><text x="-153.0" y="-641.1" font-size="12" fill="#1e3a8a" text-anchor="middle" font-weight="700">(1,1)</text>
<text x="-217.3" y="-695.3" font-size="11" fill="#111111" text-anchor="middle">1</text>
<rect x="-160.6" y="-769.0" width="37.8" height="17" rx="3" fill="#ffffff" opacity="0.94"/><text x="-141.7" y="-755.5" font-size="12" fill="#1e3a8a" text-anchor="middle" font-weight="700">(0,N)</text>
<text x="-197.3" y="-781.3" font-size="11" fill="#111111" text-anchor="middle">N</text>
<text x="37.3" y="-526.0" font-size="13" font-weight="700" text-anchor="middle" fill="#111111">CLIENTE</text>
<text x="-56.8" y="-733.9" font-size="13" font-weight="700" text-anchor="middle" fill="#111111">PRODUCTO</text>
<text x="-116.5" y="-598.5" font-size="13" font-weight="700" text-anchor="middle" fill="#111111">PROVEEDOR</text>
<text x="128.4" y="-667.2" font-size="12.5" font-weight="700" font-style="italic" text-anchor="middle" fill="#111111">compra</text>
<text x="-276.3" y="-737.8" font-size="12.5" font-weight="700" font-style="italic" text-anchor="middle" fill="#111111">suministra</text>
<text x="142.6" y="-509.9" font-size="12" text-anchor="middle" fill="#111111">dirección</text>
<text x="88.7" y="-471.1" font-size="12" text-anchor="middle" fill="#111111">nombre</text>
<text x="15.5" y="-445.8" font-size="12" text-anchor="middle" fill="#111111">dni</text>
<line x1="6.3" y1="-441.8" x2="24.8" y2="-441.8" stroke="#111111" stroke-width="1.3"/>
<text x="-61.0" y="-470.3" font-size="12" text-anchor="middle" fill="#111111">apellidos</text>
<text x="-130.5" y="-510.5" font-size="12" text-anchor="middle" fill="#111111">fecha_nacimiento</text>
<text x="-93.0" y="-684.4" font-size="12" text-anchor="middle" fill="#111111">nombre</text>
<text x="-62.9" y="-796.7" font-size="12" text-anchor="middle" fill="#111111">código</text>
<line x1="-82.8" y1="-792.7" x2="-42.9" y2="-792.7" stroke="#111111" stroke-width="1.3"/>
<text x="38.2" y="-779.2" font-size="12" text-anchor="middle" fill="#111111">precio_unitario</text>
<text x="-72.3" y="-548.2" font-size="12" text-anchor="middle" fill="#111111">nif</text>
<line x1="-79.9" y1="-544.2" x2="-64.8" y2="-544.2" stroke="#111111" stroke-width="1.3"/>
<text x="-185.5" y="-551.2" font-size="12" text-anchor="middle" fill="#111111">dirección</text>
<text x="-48.0" y="-647.5" font-size="12" text-anchor="middle" fill="#111111">nombre</text>
</svg>