<svg xmlns="http://www.w3.org/2000/svg" viewBox="-219 -1222 899 497" width="899" height="497" role="img" aria-labelledby="t d" font-family="DejaVu Sans, Verdana, Arial, sans-serif">
<title id="t">Concesionario: ventas, revisiones y mecánicos</title><desc id="d">CLIENTE compra COCHE (1:N). COCHE pasa REVISIÓN (identificadora, débil). MECÁNICO realiza REVISIÓN. MECÁNICO supervisa a MECÁNICO.</desc>
<rect x="-219" y="-1222" width="899" height="497" rx="10" fill="#ffffff" stroke="#cbd5e1"/>
<g stroke="#1f2937" stroke-width="1.4" fill="none"><line x1="520.0" y1="-911.2" x2="542.5" y2="-898.2"/><line x1="487.0" y1="-911.2" x2="496.5" y2="-853.3"/><line x1="471.5" y1="-911.2" x2="458.5" y2="-888.7"/><line x1="436.5" y1="-924.6" x2="391.5" y2="-917.2"/><line x1="495.7" y1="-953.2" x2="508.7" y2="-975.8"/><line x1="530.7" y1="-944.9" x2="577.1" y2="-957.3"/><line x1="261.8" y1="-1023.5" x2="272.3" y2="-1016.9"/><line x1="223.1" y1="-1023.5" x2="216.4" y2="-998.4"/><line x1="186.8" y1="-1033.3" x2="161.6" y2="-1026.6"/><line x1="234.4" y1="-1065.5" x2="250.4" y2="-1125.4"/><line x1="249.8" y1="-1065.5" x2="268.1" y2="-1083.9"/><line x1="29.4" y1="-1068.1" x2="54.5" y2="-1061.4"/><line x1="-37.3" y1="-1061.0" x2="-52.2" y2="-1039.7"/><line x1="-74.5" y1="-1090.5" x2="-93.8" y2="-1093.6"/><line x1="-36.9" y1="-1103.0" x2="-82.6" y2="-1170.1"/><line x1="-24.4" y1="-1103.0" x2="-26.7" y2="-1128.9"/><line x1="18.8" y1="-800.5" x2="29.8" y2="-777.0"/><line x1="-16.0" y1="-800.5" x2="-35.9" y2="-783.8"/><line x1="-46.9" y1="-816.6" x2="-72.8" y2="-814.4"/><line x1="-46.9" y1="-835.8" x2="-51.0" y2="-836.9"/><line x1="1.4" y1="-842.5" x2="-7.5" y2="-867.0"/><line x1="474.1" y1="-1085.3" x2="482.3" y2="-953.2"/><line x1="406.1" y1="-1085.3" x2="270.8" y2="-1054.2"/><line x1="155.3" y1="-1147.5" x2="213.8" y2="-1065.5"/><line x1="87.3" y1="-1147.5" x2="12.6" y2="-1103.0"/><line x1="57.6" y1="-926.9" x2="18.7" y2="-842.5"/><line x1="57.6" y1="-994.9" x2="-3.2" y2="-1061.0"/><path d="M290.9 -890.6 Q280.9 -936.6 58.6 -842.5" fill="none"/><path d="M290.9 -822.6 Q280.9 -776.6 64.9 -812.3" fill="none"/></g>
<rect x="436.5" y="-953.2" width="94.2" height="42.0" fill="#ffffff" stroke="#111111" stroke-width="1.8"/>
<rect x="186.8" y="-1065.5" width="84.0" height="42.0" fill="#ffffff" stroke="#111111" stroke-width="1.8"/>
<rect x="-74.5" y="-1103.0" width="103.9" height="42.0" fill="#ffffff" stroke="#111111" stroke-width="1.8"/>
<rect x="-70.5" y="-1099.0" width="95.9" height="34.0" fill="none" stroke="#111111" stroke-width="1.4"/>
<rect x="-46.9" y="-842.5" width="111.7" height="42.0" fill="#ffffff" stroke="#111111" stroke-width="1.8"/>
<polygon points="474.1,-1085.3 440.1,-1106.3 440.1,-1064.3" fill="#ffffff" stroke="none"/>
<polygon points="406.1,-1085.3 440.1,-1106.3 440.1,-1064.3" fill="#111111" stroke="none"/>
<polygon points="474.1,-1085.3 440.1,-1106.3 406.1,-1085.3 440.1,-1064.3" fill="none" stroke="#111111" stroke-width="1.8" stroke-linejoin="round"/>
<line x1="440.1" y1="-1106.3" x2="440.1" y2="-1064.3" stroke="#111111" stroke-width="1"/>
<polygon points="155.3,-1147.5 121.3,-1168.5 121.3,-1126.5" fill="#ffffff" stroke="none"/>
<polygon points="87.3,-1147.5 121.3,-1168.5 121.3,-1126.5" fill="#111111" stroke="none"/>
<polygon points="155.3,-1147.5 121.3,-1168.5 87.3,-1147.5 121.3,-1126.5" fill="none" stroke="#111111" stroke-width="1.8" stroke-linejoin="round"/>
<line x1="121.3" y1="-1168.5" x2="121.3" y2="-1126.5" stroke="#111111" stroke-width="1"/>
<polygon points="57.6,-926.9 78.6,-960.9 36.6,-960.9" fill="#ffffff" stroke="none"/>
<polygon points="57.6,-994.9 78.6,-960.9 36.6,-960.9" fill="#111111" stroke="none"/>
<polygon points="57.6,-926.9 78.6,-960.9 57.6,-994.9 36.6,-960.9" fill="none" stroke="#111111" stroke-width="1.8" stroke-linejoin="round"/>
<line x1="78.6" y1="-960.9" x2="36.6" y2="-960.9" stroke="#111111" stroke-width="1"/>
<polygon points="290.9,-890.6 269.9,-856.6 311.9,-856.6" fill="#ffffff" stroke="none"/>
<polygon points="290.9,-822.6 269.9,-856.6 311.9,-856.6" fill="#111111" stroke="none"/>
<polygon points="290.9,-890.6 269.9,-856.6 290.9,-822.6 311.9,-856.6" fill="none" stroke="#111111" stroke-width="1.8" stroke-linejoin="round"/>
<line x1="269.9" y1="-856.6" x2="311.9" y2="-856.6" stroke="#111111" stroke-width="1"/>
<ellipse cx="562.5" cy="-886.7" rx="35.7" ry="14.0" fill="#ffffff" stroke="#111111" stroke-width="1.4"/>
<ellipse cx="498.8" cy="-839.4" rx="27.0" ry="14.0" fill="#ffffff" stroke="#111111" stroke-width="1.4"/>
<ellipse cx="450.6" cy="-875.1" rx="34.2" ry="14.0" fill="#ffffff" stroke="#111111" stroke-width="1.4"/>
<ellipse cx="356.6" cy="-911.5" rx="38.2" ry="14.0" fill="#ffffff" stroke="#111111" stroke-width="1.4"/>
<ellipse cx="516.5" cy="-989.3" rx="31.1" ry="14.0" fill="#ffffff" stroke="#111111" stroke-width="1.4"/>
<ellipse cx="611.1" cy="-966.4" rx="45.0" ry="14.0" fill="#ffffff" stroke="#111111" stroke-width="1.4"/>
<ellipse cx="291.5" cy="-1004.7" rx="39.5" ry="14.0" fill="#ffffff" stroke="#111111" stroke-width="1.4"/>
<ellipse cx="212.7" cy="-984.5" rx="29.8" ry="14.0" fill="#ffffff" stroke="#111111" stroke-width="1.4"/>
<ellipse cx="125.7" cy="-1016.9" rx="49.6" ry="14.0" fill="#ffffff" stroke="#111111" stroke-width="1.4"/>
<ellipse cx="254.1" cy="-1139.3" rx="27.0" ry="14.0" fill="#ffffff" stroke="#111111" stroke-width="1.4"/>
<ellipse cx="281.0" cy="-1096.8" rx="33.4" ry="14.0" fill="#ffffff" stroke="#111111" stroke-width="1.4"/>
<ellipse cx="92.2" cy="-1051.3" rx="54.4" ry="14.0" fill="#ffffff" stroke="#111111" stroke-width="1.4"/>
<ellipse cx="-61.8" cy="-1026.0" rx="44.1" ry="14.0" fill="#ffffff" stroke="#111111" stroke-width="1.4"/>
<ellipse cx="-139.9" cy="-1101.2" rx="54.7" ry="14.0" fill="#ffffff" stroke="#111111" stroke-width="1.4"/>
<ellipse cx="-92.0" cy="-1183.8" rx="49.8" ry="14.0" fill="#ffffff" stroke="#111111" stroke-width="1.4"/>
<ellipse cx="-27.9" cy="-1142.9" rx="27.0" ry="14.0" fill="#ffffff" stroke="#111111" stroke-width="1.4"/>
<ellipse cx="36.2" cy="-763.2" rx="34.2" ry="14.0" fill="#ffffff" stroke="#111111" stroke-width="1.4"/>
<ellipse cx="-51.1" cy="-771.1" rx="35.7" ry="14.0" fill="#ffffff" stroke="#111111" stroke-width="1.4"/>
<ellipse cx="-124.5" cy="-809.8" rx="54.7" ry="14.0" fill="#ffffff" stroke="#111111" stroke-width="1.4"/>
<ellipse cx="-82.3" cy="-844.9" rx="38.2" ry="14.0" fill="#ffffff" stroke="#111111" stroke-width="1.4"/>
<ellipse cx="-12.5" cy="-880.7" rx="27.0" ry="14.0" fill="#ffffff" stroke="#111111" stroke-width="1.4"/>
<rect x="462.3" y="-990.2" width="36.5" height="17" rx="3" fill="#ffffff" opacity="0.94"/><text x="480.6" y="-976.7" font-size="12" fill="#1e3a8a" text-anchor="middle" font-weight="700">(0,1)</text>
<text x="483.1" y="-1071.3" font-size="11" fill="#111111" text-anchor="middle">1</text>
<rect x="279.1" y="-1069.5" width="37.8" height="17" rx="3" fill="#ffffff" opacity="0.94"/><text x="298.0" y="-1056.0" font-size="12" fill="#1e3a8a" text-anchor="middle" font-weight="700">(0,N)</text>
<text x="397.1" y="-1091.3" font-size="11" fill="#111111" text-anchor="middle">N</text>
<rect x="179.3" y="-1097.3" width="36.5" height="17" rx="3" fill="#ffffff" opacity="0.94"/><text x="197.5" y="-1083.8" font-size="12" fill="#1e3a8a" text-anchor="middle" font-weight="700">(1,1)</text>
<text x="164.3" y="-1133.5" font-size="11" fill="#111111" text-anchor="middle">1</text>
<rect x="17.8" y="-1126.3" width="37.8" height="17" rx="3" fill="#ffffff" opacity="0.94"/><text x="36.7" y="-1112.8" font-size="12" fill="#1e3a8a" text-anchor="middle" font-weight="700">(0,N)</text>
<text x="78.3" y="-1153.5" font-size="11" fill="#111111" text-anchor="middle">N</text>
<text x="8.9" y="-1124.7" font-size="11" font-weight="700" fill="#111111" text-anchor="middle">ID</text>
<rect x="12.2" y="-877.0" width="36.5" height="17" rx="3" fill="#ffffff" opacity="0.94"/><text x="30.4" y="-863.5" font-size="12" fill="#1e3a8a" text-anchor="middle" font-weight="700">(1,1)</text>
<text x="47.6" y="-913.9" font-size="11" fill="#111111" text-anchor="middle">1</text>
<rect x="-3.2" y="-1049.4" width="37.8" height="17" rx="3" fill="#ffffff" opacity="0.94"/><text x="15.7" y="-1035.9" font-size="12" fill="#1e3a8a" text-anchor="middle" font-weight="700">(0,N)</text>
<text x="67.6" y="-999.9" font-size="11" fill="#111111" text-anchor="middle">N</text>
<rect x="158.1" y="-896.5" width="36.5" height="17" rx="3" fill="#ffffff" opacity="0.94"/><text x="176.4" y="-883.0" font-size="12" fill="#1e3a8a" text-anchor="middle" font-weight="700">(0,1)</text>
<text x="300.9" y="-895.6" font-size="11" fill="#111111" text-anchor="middle">1</text>
<text x="168.5" y="-898.2" font-size="11" fill="#475569" text-anchor="middle" font-style="italic">supervisor</text>
<rect x="160.4" y="-807.0" width="37.8" height="17" rx="3" fill="#ffffff" opacity="0.94"/><text x="179.3" y="-793.5" font-size="12" fill="#1e3a8a" text-anchor="middle" font-weight="700">(0,N)</text>
<text x="280.9" y="-809.6" font-size="11" fill="#111111" text-anchor="middle">N</text>
<text x="178.2" y="-777.6" font-size="11" fill="#475569" text-anchor="middle" font-style="italic">supervisado</text>
<text x="483.6" y="-927.2" font-size="13" font-weight="700" text-anchor="middle" fill="#111111">CLIENTE</text>
<text x="228.8" y="-1039.5" font-size="13" font-weight="700" text-anchor="middle" fill="#111111">COCHE</text>
<text x="-22.6" y="-1077.0" font-size="13" font-weight="700" text-anchor="middle" fill="#111111">REVISIÓN</text>
<text x="9.0" y="-816.5" font-size="13" font-weight="700" text-anchor="middle" fill="#111111">MECÁNICO</text>
<text x="440.1" y="-1114.8" font-size="12.5" font-weight="700" font-style="italic" text-anchor="middle" fill="#111111">compra</text>
<text x="121.3" y="-1177.0" font-size="12.5" font-weight="700" font-style="italic" text-anchor="middle" fill="#111111">pasa</text>
<text x="112.2" y="-956.4" font-size="12.5" font-weight="700" font-style="italic" text-anchor="middle" fill="#111111">realiza</text>
<text x="356.3" y="-852.1" font-size="12.5" font-weight="700" font-style="italic" text-anchor="middle" fill="#111111">supervisa</text>
<text x="562.5" y="-882.7" font-size="12" text-anchor="middle" fill="#111111">teléfono</text>
<text x="498.8" y="-835.4" font-size="12" text-anchor="middle" fill="#111111">nif</text>
<line x1="491.2" y1="-831.4" x2="506.3" y2="-831.4" stroke="#111111" stroke-width="1.8" stroke-dasharray="1.5 2.5"/>
<text x="450.6" y="-871.1" font-size="12" text-anchor="middle" fill="#111111">nombre</text>
<text x="356.6" y="-907.5" font-size="12" text-anchor="middle" fill="#111111">dirección</text>
<text x="516.5" y="-985.3" font-size="12" text-anchor="middle" fill="#111111">ciudad</text>
<text x="611.1" y="-962.4" font-size="12" text-anchor="middle" fill="#111111">cód_cliente</text>
<line x1="577.2" y1="-958.4" x2="645.1" y2="-958.4" stroke="#111111" stroke-width="1.3"/>
<text x="291.5" y="-1000.7" font-size="12" text-anchor="middle" fill="#111111">matrícula</text>
<line x1="263.1" y1="-996.7" x2="320.0" y2="-996.7" stroke="#111111" stroke-width="1.3"/>
<text x="212.7" y="-980.5" font-size="12" text-anchor="middle" fill="#111111">marca</text>
<text x="125.7" y="-1012.9" font-size="12" text-anchor="middle" fill="#111111">precio_venta</text>
<text x="254.1" y="-1135.3" font-size="12" text-anchor="middle" fill="#111111">color</text>
<text x="281.0" y="-1092.8" font-size="12" text-anchor="middle" fill="#111111">modelo</text>
<text x="92.2" y="-1047.3" font-size="12" text-anchor="middle" fill="#111111">cambio_aceite</text>
<text x="-61.8" y="-1022.0" font-size="12" text-anchor="middle" fill="#111111">nº_revisión</text>
<line x1="-94.9" y1="-1018.0" x2="-28.6" y2="-1018.0" stroke="#111111" stroke-width="1.3" stroke-dasharray="4 3"/>
<text x="-139.9" y="-1097.2" font-size="12" text-anchor="middle" fill="#111111">cambio_frenos</text>
<text x="-92.0" y="-1179.8" font-size="12" text-anchor="middle" fill="#111111">cambio_filtro</text>
<text x="-27.9" y="-1138.9" font-size="12" text-anchor="middle" fill="#111111">otros</text>
<text x="36.2" y="-759.2" font-size="12" text-anchor="middle" fill="#111111">nombre</text>
<text x="-51.1" y="-767.1" font-size="12" text-anchor="middle" fill="#111111">teléfono</text>
<text x="-124.5" y="-805.8" font-size="12" text-anchor="middle" fill="#111111">cód_empleado</text>
<line x1="-168.1" y1="-801.8" x2="-80.8" y2="-801.8" stroke="#111111" stroke-width="1.3"/>
<text x="-82.3" y="-840.9" font-size="12" text-anchor="middle" fill="#111111">dirección</text>
<text x="-12.5" y="-876.7" font-size="12" text-anchor="middle" fill="#111111">dni</text>
<line x1="-21.8" y1="-872.7" x2="-3.3" y2="-872.7" stroke="#111111" stroke-width="1.8" stroke-dasharray="1.5 2.5"/>
</svg>