<svg xmlns="http://www.w3.org/2000/svg" viewBox="-92 -952 818 564" width="818" height="564" role="img" aria-labelledby="t d" font-family="DejaVu Sans, Verdana, Arial, sans-serif">
<title id="t">Federación deportiva: equipos, partidos e incidencias</title><desc id="d">JUGADOR pertenece a EQUIPO y un jugador es capitán. EQUIPO es local o visitante en PARTIDO. PARTIDO registra INCIDENCIA (débil) protagonizada por JUGADOR.</desc>
<rect x="-92" y="-952" width="818" height="564" rx="10" fill="#ffffff" stroke="#cbd5e1"/>
<g stroke="#1f2937" stroke-width="1.4" fill="none"><line x1="69.3" y1="-554.2" x2="67.0" y2="-528.3"/><line x1="26.2" y1="-554.2" x2="2.6" y2="-543.2"/><line x1="41.2" y1="-596.2" x2="19.9" y2="-611.1"/><line x1="418.2" y1="-476.1" x2="418.2" y2="-450.1"/><line x1="396.8" y1="-518.1" x2="378.3" y2="-536.2"/><line x1="423.6" y1="-518.1" x2="432.7" y2="-554.0"/><line x1="463.3" y1="-518.1" x2="486.8" y2="-529.1"/><line x1="160.2" y1="-854.1" x2="141.5" y2="-860.7"/><line x1="200.1" y1="-858.1" x2="182.5" y2="-900.4"/><line x1="229.9" y1="-858.1" x2="248.3" y2="-876.5"/><line x1="596.4" y1="-800.1" x2="620.9" y2="-791.2"/><line x1="526.6" y1="-842.1" x2="513.6" y2="-864.6"/><line x1="556.4" y1="-842.1" x2="573.1" y2="-862.0"/><line x1="163.3" y1="-573.7" x2="116.1" y2="-574.5"/><line x1="231.3" y1="-573.7" x2="367.2" y2="-518.0"/><line x1="293.0" y1="-441.4" x2="371.0" y2="-476.1"/><line x1="225.0" y1="-441.4" x2="95.3" y2="-554.2"/><line x1="87.5" y1="-720.9" x2="73.5" y2="-596.2"/><line x1="87.5" y1="-788.9" x2="160.2" y2="-817.7"/><line x1="242.5" y1="-674.7" x2="107.3" y2="-596.2"/><line x1="242.5" y1="-742.7" x2="216.3" y2="-816.1"/><line x1="340.4" y1="-803.2" x2="257.6" y2="-824.5"/><line x1="408.4" y1="-803.2" x2="479.2" y2="-812.9"/><line x1="549.7" y1="-417.7" x2="453.0" y2="-476.1"/><line x1="549.7" y1="-485.7" x2="539.4" y2="-800.1"/></g>
<rect x="26.2" y="-596.2" width="89.9" height="42.0" fill="#ffffff" stroke="#111111" stroke-width="1.8"/>
<rect x="367.2" y="-518.1" width="102.0" height="42.0" fill="#ffffff" stroke="#111111" stroke-width="1.8"/>
<rect x="160.2" y="-858.1" width="97.4" height="42.0" fill="#ffffff" stroke="#111111" stroke-width="1.8"/>
<rect x="479.2" y="-842.1" width="119.1" height="42.0" fill="#ffffff" stroke="#111111" stroke-width="1.8"/>
<rect x="483.2" y="-838.1" width="111.1" height="34.0" fill="none" stroke="#111111" stroke-width="1.4"/>
<polygon points="163.3,-573.7 197.3,-552.7 197.3,-594.7" fill="#ffffff" stroke="none"/>
<polygon points="231.3,-573.7 197.3,-552.7 197.3,-594.7" fill="#111111" stroke="none"/>
<polygon points="163.3,-573.7 197.3,-552.7 231.3,-573.7 197.3,-594.7" fill="none" stroke="#111111" stroke-width="1.8" stroke-linejoin="round"/>
<line x1="197.3" y1="-552.7" x2="197.3" y2="-594.7" stroke="#111111" stroke-width="1"/>
<polygon points="293.0,-441.4 259.0,-462.4 259.0,-420.4" fill="#ffffff" stroke="none"/>
<polygon points="225.0,-441.4 259.0,-462.4 259.0,-420.4" fill="#ffffff" stroke="none"/>
<polygon points="293.0,-441.4 259.0,-462.4 225.0,-441.4 259.0,-420.4" fill="none" stroke="#111111" stroke-width="1.8" stroke-linejoin="round"/>
<line x1="259.0" y1="-462.4" x2="259.0" y2="-420.4" stroke="#111111" stroke-width="1"/>
<polygon points="87.5,-720.9 108.5,-754.9 66.5,-754.9" fill="#ffffff" stroke="none"/>
<polygon points="87.5,-788.9 108.5,-754.9 66.5,-754.9" fill="#111111" stroke="none"/>
<polygon points="87.5,-720.9 108.5,-754.9 87.5,-788.9 66.5,-754.9" fill="none" stroke="#111111" stroke-width="1.8" stroke-linejoin="round"/>
<line x1="108.5" y1="-754.9" x2="66.5" y2="-754.9" stroke="#111111" stroke-width="1"/>
<polygon points="242.5,-674.7 263.5,-708.7 221.5,-708.7" fill="#ffffff" stroke="none"/>
<polygon points="242.5,-742.7 263.5,-708.7 221.5,-708.7" fill="#111111" stroke="none"/>
<polygon points="242.5,-674.7 263.5,-708.7 242.5,-742.7 221.5,-708.7" fill="none" stroke="#111111" stroke-width="1.8" stroke-linejoin="round"/>
<line x1="263.5" y1="-708.7" x2="221.5" y2="-708.7" stroke="#111111" stroke-width="1"/>
<polygon points="340.4,-803.2 374.4,-782.2 374.4,-824.2" fill="#ffffff" stroke="none"/>
<polygon points="408.4,-803.2 374.4,-782.2 374.4,-824.2" fill="#111111" stroke="none"/>
<polygon points="340.4,-803.2 374.4,-782.2 408.4,-803.2 374.4,-824.2" fill="none" stroke="#111111" stroke-width="1.8" stroke-linejoin="round"/>
<line x1="374.4" y1="-782.2" x2="374.4" y2="-824.2" stroke="#111111" stroke-width="1"/>
<polygon points="549.7,-417.7 570.7,-451.7 528.7,-451.7" fill="#ffffff" stroke="none"/>
<polygon points="549.7,-485.7 570.7,-451.7 528.7,-451.7" fill="#111111" stroke="none"/>
<polygon points="549.7,-417.7 570.7,-451.7 549.7,-485.7 528.7,-451.7" fill="none" stroke="#111111" stroke-width="1.8" stroke-linejoin="round"/>
<line x1="570.7" y1="-451.7" x2="528.7" y2="-451.7" stroke="#111111" stroke-width="1"/>
<ellipse cx="65.8" cy="-514.3" rx="27.0" ry="14.0" fill="#ffffff" stroke="#111111" stroke-width="1.4"/>
<ellipse cx="-22.4" cy="-531.6" rx="45.2" ry="14.0" fill="#ffffff" stroke="#111111" stroke-width="1.4"/>
<ellipse cx="3.0" cy="-622.9" rx="31.1" ry="14.0" fill="#ffffff" stroke="#111111" stroke-width="1.4"/>
<ellipse cx="418.2" cy="-436.1" rx="27.0" ry="14.0" fill="#ffffff" stroke="#111111" stroke-width="1.4"/>
<ellipse cx="365.1" cy="-549.1" rx="34.2" ry="14.0" fill="#ffffff" stroke="#111111" stroke-width="1.4"/>
<ellipse cx="436.2" cy="-567.9" rx="29.4" ry="14.0" fill="#ffffff" stroke="#111111" stroke-width="1.4"/>
<ellipse cx="509.7" cy="-539.7" rx="35.2" ry="14.0" fill="#ffffff" stroke="#111111" stroke-width="1.4"/>
<ellipse cx="111.2" cy="-871.2" rx="46.2" ry="14.0" fill="#ffffff" stroke="#111111" stroke-width="1.4"/>
<ellipse cx="176.8" cy="-914.2" rx="33.7" ry="14.0" fill="#ffffff" stroke="#111111" stroke-width="1.4"/>
<ellipse cx="261.6" cy="-889.8" rx="44.2" ry="14.0" fill="#ffffff" stroke="#111111" stroke-width="1.4"/>
<ellipse cx="651.5" cy="-780.1" rx="50.7" ry="14.0" fill="#ffffff" stroke="#111111" stroke-width="1.4"/>
<ellipse cx="505.9" cy="-878.0" rx="27.0" ry="14.0" fill="#ffffff" stroke="#111111" stroke-width="1.4"/>
<ellipse cx="584.1" cy="-875.2" rx="32.1" ry="14.0" fill="#ffffff" stroke="#111111" stroke-width="1.4"/>
<rect x="117.7" y="-583.2" width="36.5" height="17" rx="3" fill="#ffffff" opacity="0.94"/><text x="135.9" y="-569.7" font-size="12" fill="#1e3a8a" text-anchor="middle" font-weight="700">(1,1)</text>
<text x="154.3" y="-579.7" font-size="11" fill="#111111" text-anchor="middle">1</text>
<rect x="322.4" y="-537.6" width="37.8" height="17" rx="3" fill="#ffffff" opacity="0.94"/><text x="341.3" y="-524.1" font-size="12" fill="#1e3a8a" text-anchor="middle" font-weight="700">(1,N)</text>
<text x="240.3" y="-559.7" font-size="11" fill="#111111" text-anchor="middle">N</text>
<rect x="327.2" y="-473.7" width="36.5" height="17" rx="3" fill="#ffffff" opacity="0.94"/><text x="345.4" y="-460.2" font-size="12" fill="#1e3a8a" text-anchor="middle" font-weight="700">(1,1)</text>
<text x="302.0" y="-427.4" font-size="11" fill="#111111" text-anchor="middle">1</text>
<rect x="98.2" y="-544.8" width="36.5" height="17" rx="3" fill="#ffffff" opacity="0.94"/><text x="116.4" y="-531.3" font-size="12" fill="#1e3a8a" text-anchor="middle" font-weight="700">(0,1)</text>
<text x="216.0" y="-447.4" font-size="11" fill="#111111" text-anchor="middle">1</text>
<rect x="58.4" y="-633.0" width="36.5" height="17" rx="3" fill="#ffffff" opacity="0.94"/><text x="76.6" y="-619.5" font-size="12" fill="#1e3a8a" text-anchor="middle" font-weight="700">(1,1)</text>
<text x="77.5" y="-707.9" font-size="11" fill="#111111" text-anchor="middle">1</text>
<rect x="115.2" y="-816.4" width="37.8" height="17" rx="3" fill="#ffffff" opacity="0.94"/><text x="134.1" y="-802.9" font-size="12" fill="#1e3a8a" text-anchor="middle" font-weight="700">(0,N)</text>
<text x="97.5" y="-793.9" font-size="11" fill="#111111" text-anchor="middle">N</text>
<rect x="113.3" y="-619.2" width="36.5" height="17" rx="3" fill="#ffffff" opacity="0.94"/><text x="131.5" y="-605.7" font-size="12" fill="#1e3a8a" text-anchor="middle" font-weight="700">(1,1)</text>
<text x="232.5" y="-661.7" font-size="11" fill="#111111" text-anchor="middle">1</text>
<rect x="206.8" y="-798.7" width="37.8" height="17" rx="3" fill="#ffffff" opacity="0.94"/><text x="225.7" y="-785.2" font-size="12" fill="#1e3a8a" text-anchor="middle" font-weight="700">(0,N)</text>
<text x="252.5" y="-747.7" font-size="11" fill="#111111" text-anchor="middle">N</text>
<rect x="266.5" y="-826.6" width="36.5" height="17" rx="3" fill="#ffffff" opacity="0.94"/><text x="284.7" y="-813.1" font-size="12" fill="#1e3a8a" text-anchor="middle" font-weight="700">(1,1)</text>
<text x="331.4" y="-809.2" font-size="11" fill="#111111" text-anchor="middle">1</text>
<rect x="432.5" y="-818.1" width="37.8" height="17" rx="3" fill="#ffffff" opacity="0.94"/><text x="451.5" y="-804.6" font-size="12" fill="#1e3a8a" text-anchor="middle" font-weight="700">(0,N)</text>
<text x="417.4" y="-789.2" font-size="11" fill="#111111" text-anchor="middle">N</text>
<text x="466.0" y="-831.3" font-size="11" font-weight="700" fill="#111111" text-anchor="middle">ID</text>
<rect x="458.7" y="-470.6" width="36.5" height="17" rx="3" fill="#ffffff" opacity="0.94"/><text x="477.0" y="-457.1" font-size="12" fill="#1e3a8a" text-anchor="middle" font-weight="700">(1,1)</text>
<text x="539.7" y="-404.7" font-size="11" fill="#111111" text-anchor="middle">1</text>
<rect x="521.4" y="-781.1" width="37.8" height="17" rx="3" fill="#ffffff" opacity="0.94"/><text x="540.3" y="-767.6" font-size="12" fill="#1e3a8a" text-anchor="middle" font-weight="700">(0,N)</text>
<text x="559.7" y="-490.7" font-size="11" fill="#111111" text-anchor="middle">N</text>
<text x="71.2" y="-570.2" font-size="13" font-weight="700" text-anchor="middle" fill="#111111">EQUIPO</text>
<text x="418.2" y="-492.1" font-size="13" font-weight="700" text-anchor="middle" fill="#111111">JUGADOR</text>
<text x="208.9" y="-832.1" font-size="13" font-weight="700" text-anchor="middle" fill="#111111">PARTIDO</text>
<text x="538.7" y="-816.1" font-size="13" font-weight="700" text-anchor="middle" fill="#111111">INCIDENCIA</text>
<text x="197.3" y="-603.2" font-size="12.5" font-weight="700" font-style="italic" text-anchor="middle" fill="#111111">pertenece a</text>
<text x="259.0" y="-470.9" font-size="12.5" font-weight="700" font-style="italic" text-anchor="middle" fill="#111111">capitán</text>
<text x="134.7" y="-750.4" font-size="12.5" font-weight="700" font-style="italic" text-anchor="middle" fill="#111111">local</text>
<text x="304.6" y="-704.2" font-size="12.5" font-weight="700" font-style="italic" text-anchor="middle" fill="#111111">visitante</text>
<text x="374.4" y="-832.7" font-size="12.5" font-weight="700" font-style="italic" text-anchor="middle" fill="#111111">registra</text>
<text x="623.6" y="-447.2" font-size="12.5" font-weight="700" font-style="italic" text-anchor="middle" fill="#111111">protagoniza</text>
<text x="65.8" y="-510.3" font-size="12" text-anchor="middle" fill="#111111">club</text>
<text x="-22.4" y="-527.6" font-size="12" text-anchor="middle" fill="#111111">cód_equipo</text>
<line x1="-56.6" y1="-523.6" x2="11.9" y2="-523.6" stroke="#111111" stroke-width="1.3"/>
<text x="3.0" y="-618.9" font-size="12" text-anchor="middle" fill="#111111">ciudad</text>
<text x="418.2" y="-432.1" font-size="12" text-anchor="middle" fill="#111111">dni</text>
<text x="365.1" y="-545.1" font-size="12" text-anchor="middle" fill="#111111">nombre</text>
<text x="436.2" y="-563.9" font-size="12" text-anchor="middle" fill="#111111">dorsal</text>
<text x="509.7" y="-535.7" font-size="12" text-anchor="middle" fill="#111111">nº_ficha</text>
<line x1="485.5" y1="-531.7" x2="533.9" y2="-531.7" stroke="#111111" stroke-width="1.3"/>
<text x="111.2" y="-867.2" font-size="12" text-anchor="middle" fill="#111111">cód_partido</text>
<line x1="76.0" y1="-863.2" x2="146.4" y2="-863.2" stroke="#111111" stroke-width="1.3"/>
<text x="176.8" y="-910.2" font-size="12" text-anchor="middle" fill="#111111">jornada</text>
<text x="261.6" y="-885.8" font-size="12" text-anchor="middle" fill="#111111">fecha_hora</text>
<text x="651.5" y="-776.1" font-size="12" text-anchor="middle" fill="#111111">nº_secuencia</text>
<line x1="611.8" y1="-772.1" x2="691.2" y2="-772.1" stroke="#111111" stroke-width="1.3" stroke-dasharray="4 3"/>
<text x="505.9" y="-874.0" font-size="12" text-anchor="middle" fill="#111111">tipo</text>
<text x="584.1" y="-871.2" font-size="12" text-anchor="middle" fill="#111111">minuto</text>
<line x1="563.0" y1="-867.2" x2="605.3" y2="-867.2" stroke="#111111" stroke-width="1.3" stroke-dasharray="4 3"/>
</svg>