<svg xmlns="http://www.w3.org/2000/svg" viewBox="327 -942 1266 901" width="1266" height="901" role="img" aria-labelledby="t d" font-family="DejaVu Sans, Verdana, Arial, sans-serif">
<title id="t">Club hípico: caballos, boxes y lecciones</title><desc id="d">CABALLO se especializa en propio y de socio y tiene genealogía. PABELLÓN tiene BOX (débil), ocupado por un caballo. INSTRUCTOR se especializa en titular y en prácticas. SOCIO, INSTRUCTOR y CABALLO se relacionan en lección.</desc>
<rect x="327" y="-942" width="1266" height="901" rx="10" fill="#ffffff" stroke="#cbd5e1"/>
<g stroke="#1f2937" stroke-width="1.4" fill="none"><line x1="911.4" y1="-356.8" x2="937.4" y2="-356.8"/><line x1="861.1" y1="-335.8" x2="861.1" y2="-309.8"/><line x1="840.6" y1="-377.8" x2="782.7" y2="-437.2"/><line x1="857.6" y1="-377.8" x2="853.3" y2="-404.1"/><line x1="552.3" y1="-118.4" x2="550.0" y2="-92.5"/><line x1="501.0" y1="-144.1" x2="475.1" y2="-146.4"/><line x1="1436.8" y1="-185.5" x2="1462.7" y2="-187.8"/><line x1="1315.2" y1="-454.5" x2="1293.0" y2="-491.9"/><line x1="1369.6" y1="-446.6" x2="1387.1" y2="-452.1"/><line x1="593.5" y1="-726.8" x2="567.6" y2="-724.5"/><line x1="646.3" y1="-752.6" x2="644.0" y2="-778.5"/><line x1="709.5" y1="-419.5" x2="732.0" y2="-406.5"/><line x1="1408.4" y1="-542.3" x2="1432.8" y2="-533.4"/><line x1="1348.8" y1="-542.3" x2="1346.6" y2="-516.4"/><line x1="1348.8" y1="-584.3" x2="1343.4" y2="-646.1"/><line x1="1365.4" y1="-584.3" x2="1380.3" y2="-605.6"/><line x1="1016.3" y1="-455.3" x2="1034.5" y2="-424.6"/><line x1="996.6" y1="-455.4" x2="986.6" y2="-428.0"/><line x1="1026.0" y1="-498.4" x2="1040.4" y2="-513.2"/><line x1="1025.6" y1="-479.7" x2="1054.3" y2="-484.8"/><path d="M710.6 -203.7 Q720.6 -157.7 846.3 -335.8" fill="none"/><path d="M710.6 -271.7 Q720.6 -317.7 810.7 -342.8" fill="none"/><line x1="1257.2" y1="-267.4" x2="1318.7" y2="-412.5"/><line x1="1257.2" y1="-199.4" x2="1330.7" y2="-188.6"/><line x1="667.3" y1="-603.5" x2="651.3" y2="-710.6"/><line x1="667.3" y1="-535.5" x2="671.9" y2="-461.5"/><line x1="588.1" y1="-382.5" x2="810.7" y2="-361.5"/><line x1="520.1" y1="-382.5" x2="631.2" y2="-424.6"/><line x1="1439.8" y1="-836.0" x2="1333.1" y2="-756.8"/><line x1="1439.8" y1="-904.0" x2="1357.4" y2="-900.1"/><line x1="1021.6" y1="-469.2" x2="1285.6" y2="-438.4"/><line x1="1001.2" y1="-494.4" x2="1286.7" y2="-550.7"/><line x1="989.5" y1="-464.1" x2="886.2" y2="-377.8"/><line x1="1226.4" y1="-96.4" x2="890.5" y2="-335.8"/><line x1="607.3" y1="-136.0" x2="1226.4" y2="-96.4"/><line x1="1344.7" y1="-159.9" x2="1226.4" y2="-96.4"/><line x1="1165.5" y1="-777.6" x2="1332.5" y2="-584.3"/><line x1="1257.0" y1="-750.1" x2="1165.5" y2="-777.6"/><line x1="1265.0" y1="-875.8" x2="1165.5" y2="-777.6"/></g>
<polygon points="890.5,-335.8 904.6,-333.1 897.6,-323.3" fill="#111111" stroke="none"/>
<circle cx="1226.4" cy="-96.4" r="3.2" fill="#111111"/>
<polygon points="1332.5,-584.3 1319.5,-590.2 1328.6,-598.1" fill="#111111" stroke="none"/>
<circle cx="1165.5" cy="-777.6" r="3.2" fill="#111111"/>
<rect x="810.7" y="-377.8" width="100.7" height="42.0" fill="#ffffff" stroke="#111111" stroke-width="1.8"/>
<rect x="501.0" y="-160.4" width="106.3" height="42.0" fill="#ffffff" stroke="#111111" stroke-width="1.8"/>
<rect x="1330.7" y="-201.9" width="106.0" height="42.0" fill="#ffffff" stroke="#111111" stroke-width="1.8"/>
<rect x="1285.6" y="-454.5" width="84.0" height="42.0" fill="#ffffff" stroke="#111111" stroke-width="1.8"/>
<rect x="593.5" y="-752.6" width="109.2" height="42.0" fill="#ffffff" stroke="#111111" stroke-width="1.8"/>
<rect x="631.2" y="-461.5" width="84.0" height="42.0" fill="#ffffff" stroke="#111111" stroke-width="1.8"/>
<rect x="635.2" y="-457.5" width="76.0" height="34.0" fill="none" stroke="#111111" stroke-width="1.4"/>
<rect x="1286.7" y="-584.3" width="128.0" height="42.0" fill="#ffffff" stroke="#111111" stroke-width="1.8"/>
<rect x="1257.0" y="-756.8" width="95.5" height="42.0" fill="#ffffff" stroke="#111111" stroke-width="1.8"/>
<rect x="1215.3" y="-917.8" width="142.1" height="42.0" fill="#ffffff" stroke="#111111" stroke-width="1.8"/>
<polygon points="710.6,-203.7 731.6,-237.7 689.6,-237.7" fill="#111111" stroke="none"/>
<polygon points="710.6,-271.7 731.6,-237.7 689.6,-237.7" fill="#111111" stroke="none"/>
<polygon points="710.6,-203.7 731.6,-237.7 710.6,-271.7 689.6,-237.7" fill="none" stroke="#111111" stroke-width="1.8" stroke-linejoin="round"/>
<line x1="731.6" y1="-237.7" x2="689.6" y2="-237.7" stroke="#111111" stroke-width="1"/>
<polygon points="1257.2,-267.4 1236.2,-233.4 1278.2,-233.4" fill="#ffffff" stroke="none"/>
<polygon points="1257.2,-199.4 1236.2,-233.4 1278.2,-233.4" fill="#111111" stroke="none"/>
<polygon points="1257.2,-267.4 1236.2,-233.4 1257.2,-199.4 1278.2,-233.4" fill="none" stroke="#111111" stroke-width="1.8" stroke-linejoin="round"/>
<line x1="1236.2" y1="-233.4" x2="1278.2" y2="-233.4" stroke="#111111" stroke-width="1"/>
<polygon points="667.3,-603.5 646.3,-569.5 688.3,-569.5" fill="#ffffff" stroke="none"/>
<polygon points="667.3,-535.5 646.3,-569.5 688.3,-569.5" fill="#111111" stroke="none"/>
<polygon points="667.3,-603.5 646.3,-569.5 667.3,-535.5 688.3,-569.5" fill="none" stroke="#111111" stroke-width="1.8" stroke-linejoin="round"/>
<line x1="646.3" y1="-569.5" x2="688.3" y2="-569.5" stroke="#111111" stroke-width="1"/>
<polygon points="588.1,-382.5 554.1,-403.5 554.1,-361.5" fill="#ffffff" stroke="none"/>
<polygon points="520.1,-382.5 554.1,-403.5 554.1,-361.5" fill="#ffffff" stroke="none"/>
<polygon points="588.1,-382.5 554.1,-403.5 520.1,-382.5 554.1,-361.5" fill="none" stroke="#111111" stroke-width="1.8" stroke-linejoin="round"/>
<line x1="554.1" y1="-403.5" x2="554.1" y2="-361.5" stroke="#111111" stroke-width="1"/>
<polygon points="1439.8,-836.0 1460.8,-870.0 1418.8,-870.0" fill="#ffffff" stroke="none"/>
<polygon points="1439.8,-904.0 1460.8,-870.0 1418.8,-870.0" fill="#111111" stroke="none"/>
<polygon points="1439.8,-836.0 1460.8,-870.0 1439.8,-904.0 1418.8,-870.0" fill="none" stroke="#111111" stroke-width="1.8" stroke-linejoin="round"/>
<line x1="1460.8" y1="-870.0" x2="1418.8" y2="-870.0" stroke="#111111" stroke-width="1"/>
<polygon points="1004.1,-475.9 1033.2,-499.5 1010.0,-438.9" fill="#111111" stroke="none"/>
<polygon points="1004.1,-475.9 969.1,-489.3 1033.2,-499.5" fill="#111111" stroke="none"/>
<polygon points="1004.1,-475.9 1010.0,-438.9 969.1,-489.3" fill="#111111" stroke="none"/>
<polygon points="1010.0,-438.9 969.1,-489.3 1033.2,-499.5" fill="none" stroke="#111111" stroke-width="1.8" stroke-linejoin="round"/>
<line x1="1004.1" y1="-475.9" x2="1010.0" y2="-438.9" stroke="#111111" stroke-width="1"/>
<line x1="1004.1" y1="-475.9" x2="969.1" y2="-489.3" stroke="#111111" stroke-width="1"/>
<line x1="1004.1" y1="-475.9" x2="1033.2" y2="-499.5" stroke="#111111" stroke-width="1"/>
<ellipse cx="1001.5" cy="-356.8" rx="64.1" ry="14.0" fill="#ffffff" stroke="#111111" stroke-width="1.4"/>
<ellipse cx="861.1" cy="-295.8" rx="27.0" ry="14.0" fill="#ffffff" stroke="#111111" stroke-width="1.4"/>
<ellipse cx="769.8" cy="-450.4" rx="40.4" ry="14.0" fill="#ffffff" stroke="#111111" stroke-width="1.4"/>
<ellipse cx="851.1" cy="-418.1" rx="34.2" ry="14.0" fill="#ffffff" stroke="#111111" stroke-width="1.4"/>
<ellipse cx="548.8" cy="-78.5" rx="55.8" ry="14.0" fill="#ffffff" stroke="#111111" stroke-width="1.4"/>
<ellipse cx="415.2" cy="-151.6" rx="64.6" ry="14.0" fill="#ffffff" stroke="#111111" stroke-width="1.4"/>
<ellipse cx="1514.3" cy="-192.3" rx="54.6" ry="14.0" fill="#ffffff" stroke="#111111" stroke-width="1.4"/>
<ellipse cx="1285.1" cy="-505.3" rx="27.0" ry="14.0" fill="#ffffff" stroke="#111111" stroke-width="1.4"/>
<ellipse cx="1414.3" cy="-460.6" rx="34.2" ry="14.0" fill="#ffffff" stroke="#111111" stroke-width="1.4"/>
<ellipse cx="519.4" cy="-720.3" rx="50.6" ry="14.0" fill="#ffffff" stroke="#111111" stroke-width="1.4"/>
<ellipse cx="642.8" cy="-792.5" rx="34.2" ry="14.0" fill="#ffffff" stroke="#111111" stroke-width="1.4"/>
<ellipse cx="751.3" cy="-395.4" rx="31.5" ry="14.0" fill="#ffffff" stroke="#111111" stroke-width="1.4"/>
<ellipse cx="1463.2" cy="-522.4" rx="49.6" ry="14.0" fill="#ffffff" stroke="#111111" stroke-width="1.4"/>
<ellipse cx="1345.4" cy="-502.4" rx="27.0" ry="14.0" fill="#ffffff" stroke="#111111" stroke-width="1.4"/>
<ellipse cx="1342.2" cy="-660.1" rx="34.2" ry="14.0" fill="#ffffff" stroke="#111111" stroke-width="1.4"/>
<ellipse cx="1389.8" cy="-619.2" rx="39.0" ry="14.0" fill="#ffffff" stroke="#111111" stroke-width="1.4"/>
<ellipse cx="1042.4" cy="-411.2" rx="27.0" ry="14.0" fill="#ffffff" stroke="#111111" stroke-width="1.4"/>
<ellipse cx="981.6" cy="-414.2" rx="27.0" ry="14.0" fill="#ffffff" stroke="#111111" stroke-width="1.4"/>
<ellipse cx="1052.6" cy="-525.7" rx="27.0" ry="14.0" fill="#ffffff" stroke="#111111" stroke-width="1.4"/>
<ellipse cx="1080.4" cy="-489.4" rx="27.6" ry="14.0" fill="#ffffff" stroke="#111111" stroke-width="1.4"/>
<rect x="761.1" y="-255.7" width="36.5" height="17" rx="3" fill="#ffffff" opacity="0.94"/><text x="779.3" y="-242.2" font-size="12" fill="#1e3a8a" text-anchor="middle" font-weight="700">(0,2)</text>
<text x="700.6" y="-190.7" font-size="11" fill="#111111" text-anchor="middle">2</text>
<text x="812.2" y="-232.0" font-size="11" fill="#475569" text-anchor="middle" font-style="italic">progenitor</text>
<rect x="743.5" y="-334.1" width="37.8" height="17" rx="3" fill="#ffffff" opacity="0.94"/><text x="762.4" y="-320.6" font-size="12" fill="#1e3a8a" text-anchor="middle" font-weight="700">(0,N)</text>
<text x="720.6" y="-276.7" font-size="11" fill="#111111" text-anchor="middle">N</text>
<text x="752.2" y="-335.0" font-size="11" fill="#475569" text-anchor="middle" font-style="italic">potro</text>
<rect x="1289.5" y="-395.7" width="36.5" height="17" rx="3" fill="#ffffff" opacity="0.94"/><text x="1307.8" y="-382.2" font-size="12" fill="#1e3a8a" text-anchor="middle" font-weight="700">(1,1)</text>
<text x="1267.2" y="-272.4" font-size="11" fill="#111111" text-anchor="middle">1</text>
<rect x="1284.1" y="-201.7" width="37.8" height="17" rx="3" fill="#ffffff" opacity="0.94"/><text x="1303.0" y="-188.2" font-size="12" fill="#1e3a8a" text-anchor="middle" font-weight="700">(0,N)</text>
<text x="1247.2" y="-186.4" font-size="11" fill="#111111" text-anchor="middle">N</text>
<rect x="637.2" y="-691.9" width="36.5" height="17" rx="3" fill="#ffffff" opacity="0.94"/><text x="655.4" y="-678.4" font-size="12" fill="#1e3a8a" text-anchor="middle" font-weight="700">(1,1)</text>
<text x="677.3" y="-608.5" font-size="11" fill="#111111" text-anchor="middle">1</text>
<rect x="651.2" y="-498.4" width="37.8" height="17" rx="3" fill="#ffffff" opacity="0.94"/><text x="670.1" y="-484.9" font-size="12" fill="#1e3a8a" text-anchor="middle" font-weight="700">(1,N)</text>
<text x="657.3" y="-522.5" font-size="11" fill="#111111" text-anchor="middle">N</text>
<text x="695.2" y="-468.9" font-size="11" font-weight="700" fill="#111111" text-anchor="middle">ID</text>
<rect x="764.6" y="-373.2" width="36.5" height="17" rx="3" fill="#ffffff" opacity="0.94"/><text x="782.8" y="-359.7" font-size="12" fill="#1e3a8a" text-anchor="middle" font-weight="700">(0,1)</text>
<text x="597.1" y="-368.5" font-size="11" fill="#111111" text-anchor="middle">1</text>
<rect x="586.7" y="-423.7" width="36.5" height="17" rx="3" fill="#ffffff" opacity="0.94"/><text x="605.0" y="-410.2" font-size="12" fill="#1e3a8a" text-anchor="middle" font-weight="700">(1,1)</text>
<text x="511.1" y="-388.5" font-size="11" fill="#111111" text-anchor="middle">1</text>
<rect x="1337.4" y="-782.5" width="36.5" height="17" rx="3" fill="#ffffff" opacity="0.94"/><text x="1355.6" y="-769.0" font-size="12" fill="#1e3a8a" text-anchor="middle" font-weight="700">(1,1)</text>
<text x="1429.8" y="-823.0" font-size="11" fill="#111111" text-anchor="middle">1</text>
<rect x="1366.4" y="-910.4" width="37.8" height="17" rx="3" fill="#ffffff" opacity="0.94"/><text x="1385.3" y="-896.9" font-size="12" fill="#1e3a8a" text-anchor="middle" font-weight="700">(0,N)</text>
<text x="1449.8" y="-909.0" font-size="11" fill="#111111" text-anchor="middle">N</text>
<rect x="1238.9" y="-450.6" width="37.8" height="17" rx="3" fill="#ffffff" opacity="0.94"/><text x="1257.8" y="-437.1" font-size="12" fill="#1e3a8a" text-anchor="middle" font-weight="700">(0,N)</text>
<text x="1026.4" y="-452.6" font-size="11" fill="#111111" text-anchor="middle">N</text>
<rect x="1240.3" y="-554.3" width="37.8" height="17" rx="3" fill="#ffffff" opacity="0.94"/><text x="1259.2" y="-540.8" font-size="12" fill="#1e3a8a" text-anchor="middle" font-weight="700">(0,N)</text>
<text x="1009.6" y="-500.9" font-size="11" fill="#111111" text-anchor="middle">N</text>
<rect x="888.8" y="-404.7" width="37.8" height="17" rx="3" fill="#ffffff" opacity="0.94"/><text x="907.7" y="-391.2" font-size="12" fill="#1e3a8a" text-anchor="middle" font-weight="700">(0,N)</text>
<text x="976.2" y="-462.2" font-size="11" fill="#111111" text-anchor="middle">N</text>
<rect x="1225.0" y="-123.3" width="28.4" height="17" rx="3" fill="#ffffff" opacity="0.94"/><text x="1239.2" y="-109.8" font-size="12" fill="#111111" text-anchor="middle" font-weight="700">T,D</text>
<rect x="1134.7" y="-772.2" width="28.4" height="17" rx="3" fill="#ffffff" opacity="0.94"/><text x="1148.8" y="-758.7" font-size="12" fill="#111111" text-anchor="middle" font-weight="700">T,D</text>
<text x="861.1" y="-351.8" font-size="13" font-weight="700" text-anchor="middle" fill="#111111">CABALLO</text>
<text x="554.1" y="-134.4" font-size="13" font-weight="700" text-anchor="middle" fill="#111111">DEL_CLUB</text>
<text x="1383.7" y="-175.9" font-size="13" font-weight="700" text-anchor="middle" fill="#111111">DE_SOCIO</text>
<text x="1327.6" y="-428.5" font-size="13" font-weight="700" text-anchor="middle" fill="#111111">SOCIO</text>
<text x="648.1" y="-726.6" font-size="13" font-weight="700" text-anchor="middle" fill="#111111">PABELLÓN</text>
<text x="673.2" y="-435.5" font-size="13" font-weight="700" text-anchor="middle" fill="#111111">BOX</text>
<text x="1350.7" y="-558.3" font-size="13" font-weight="700" text-anchor="middle" fill="#111111">INSTRUCTOR</text>
<text x="1304.8" y="-730.8" font-size="13" font-weight="700" text-anchor="middle" fill="#111111">TITULAR</text>
<text x="1286.3" y="-891.8" font-size="13" font-weight="700" text-anchor="middle" fill="#111111">EN_PRÁCTICAS</text>
<text x="640.2" y="-233.2" font-size="12.5" font-weight="700" font-style="italic" text-anchor="middle" fill="#111111">genealogía</text>
<text x="1346.4" y="-228.9" font-size="12.5" font-weight="700" font-style="italic" text-anchor="middle" fill="#111111">es propiedad de</text>
<text x="729.0" y="-565.0" font-size="12.5" font-weight="700" font-style="italic" text-anchor="middle" fill="#111111">contiene</text>
<text x="554.1" y="-412.0" font-size="12.5" font-weight="700" font-style="italic" text-anchor="middle" fill="#111111">ocupa</text>
<text x="1505.3" y="-865.5" font-size="12.5" font-weight="700" font-style="italic" text-anchor="middle" fill="#111111">supervisa</text>
<text x="941.9" y="-495.3" font-size="12.5" font-weight="700" font-style="italic" text-anchor="middle" fill="#111111">lección</text>
<text x="1001.5" y="-352.8" font-size="12" text-anchor="middle" fill="#111111">fecha_nacimiento</text>
<text x="861.1" y="-291.8" font-size="12" text-anchor="middle" fill="#111111">raza</text>
<text x="769.8" y="-446.4" font-size="12" text-anchor="middle" fill="#111111">microchip</text>
<line x1="740.4" y1="-442.4" x2="799.2" y2="-442.4" stroke="#111111" stroke-width="1.3"/>
<text x="851.1" y="-414.1" font-size="12" text-anchor="middle" fill="#111111">nombre</text>
<text x="548.8" y="-74.5" font-size="12" text-anchor="middle" fill="#111111">coste_mensual</text>
<text x="415.2" y="-147.6" font-size="12" text-anchor="middle" fill="#111111">fecha_adquisición</text>
<text x="1514.3" y="-188.3" font-size="12" text-anchor="middle" fill="#111111">cuota_pupilaje</text>
<text x="1285.1" y="-501.3" font-size="12" text-anchor="middle" fill="#111111">dni</text>
<line x1="1275.8" y1="-497.3" x2="1294.3" y2="-497.3" stroke="#111111" stroke-width="1.3"/>
<text x="1414.3" y="-456.6" font-size="12" text-anchor="middle" fill="#111111">nombre</text>
<text x="519.4" y="-716.3" font-size="12" text-anchor="middle" fill="#111111">cód_pabellón</text>
<line x1="479.8" y1="-712.3" x2="559.0" y2="-712.3" stroke="#111111" stroke-width="1.3"/>
<text x="642.8" y="-788.5" font-size="12" text-anchor="middle" fill="#111111">nombre</text>
<text x="751.3" y="-391.4" font-size="12" text-anchor="middle" fill="#111111">nº_box</text>
<line x1="730.8" y1="-387.4" x2="771.7" y2="-387.4" stroke="#111111" stroke-width="1.3" stroke-dasharray="4 3"/>
<text x="1463.2" y="-518.4" font-size="12" text-anchor="middle" fill="#111111">nº_colegiado</text>
<line x1="1424.6" y1="-514.4" x2="1501.8" y2="-514.4" stroke="#111111" stroke-width="1.3"/>
<text x="1345.4" y="-498.4" font-size="12" text-anchor="middle" fill="#111111">dni</text>
<text x="1342.2" y="-656.1" font-size="12" text-anchor="middle" fill="#111111">nombre</text>
<text x="1389.8" y="-615.2" font-size="12" text-anchor="middle" fill="#111111">titulación</text>
<text x="1042.4" y="-407.2" font-size="12" text-anchor="middle" fill="#111111">nivel</text>
<text x="981.6" y="-410.2" font-size="12" text-anchor="middle" fill="#111111">pista</text>
<text x="1052.6" y="-521.7" font-size="12" text-anchor="middle" fill="#111111">hora</text>
<line x1="1039.0" y1="-517.7" x2="1066.3" y2="-517.7" stroke="#111111" stroke-width="1.3" stroke-dasharray="4 3"/>
<text x="1080.4" y="-485.4" font-size="12" text-anchor="middle" fill="#111111">fecha</text>
<line x1="1063.8" y1="-481.4" x2="1097.0" y2="-481.4" stroke="#111111" stroke-width="1.3" stroke-dasharray="4 3"/>
</svg>