<svg xmlns="http://www.w3.org/2000/svg" viewBox="0 0 1100 420" role="img" aria-labelledby="title desc">
  <title id="title">Modelo EER de biblioteca en notación Chen</title>
  <desc id="desc">AUTOR escribe LIBRO en una relación muchos a muchos; LIBRO identifica los ejemplares mediante una relación doble y entidad débil.</desc>
  <rect width="1100" height="420" fill="#0f172a"/>
  <g fill="none" stroke="#94a3b8" stroke-width="2"><path d="M245 162H370M530 162H645M805 162H880M165 132L120 70M195 192L210 290M720 132L685 70M740 192L755 290M455 200L455 290M970 132L1010 70M970 192L1010 290"/></g>
  <g fill="#075985" stroke="#38bdf8" stroke-width="2"><rect x="85" y="132" width="160" height="60"/><rect x="645" y="132" width="160" height="60"/></g>
  <g fill="none" stroke="#38bdf8" stroke-width="2"><rect x="880" y="132" width="180" height="60"/><rect x="886" y="138" width="168" height="48"/></g>
  <polygon points="450,112 530,162 450,212 370,162" fill="#047857" stroke="#34d399" stroke-width="2"/>
  <g fill="#047857" stroke="#34d399" stroke-width="2"><polygon points="720,112 805,162 720,212 635,162"/><polygon points="720,121 791,162 720,203 649,162"/></g>
  <g fill="#312e81" stroke="#a5b4fc" stroke-width="2"><ellipse cx="120" cy="62" rx="76" ry="26"/><ellipse cx="210" cy="315" rx="72" ry="26"/><ellipse cx="685" cy="62" rx="68" ry="26"/><ellipse cx="755" cy="315" rx="70" ry="26"/><ellipse cx="455" cy="315" rx="70" ry="26"/><ellipse cx="1010" cy="62" rx="75" ry="26"/><ellipse cx="1010" cy="315" rx="62" ry="26"/></g>
  <g fill="#f8fafc" font-family="Arial, sans-serif" text-anchor="middle"><text x="165" y="168" font-size="16" font-weight="700">AUTOR</text><text x="725" y="168" font-size="16" font-weight="700">LIBRO</text><text x="970" y="168" font-size="15" font-weight="700">EJEMPLAR</text><text x="450" y="167" font-size="14" font-weight="700">ESCRIBE</text><text x="720" y="167" font-size="13" font-weight="700">IDENTIFICA</text><text x="120" y="67" font-size="12" text-decoration="underline">id_autor (PK)</text><text x="210" y="320" font-size="14">nombre</text><text x="685" y="67" font-size="12" text-decoration="underline">isbn (PK)</text><text x="755" y="320" font-size="14">titulo</text><text x="455" y="320" font-size="14">orden_autoria</text><text x="1010" y="67" font-size="11" text-decoration="underline" stroke-dasharray="3 2">num_ejemplar (parcial)</text><text x="1010" y="320" font-size="14">estado</text><text x="305" y="150" font-size="14" font-weight="700">N</text><text x="585" y="150" font-size="14" font-weight="700">M</text><text x="835" y="150" font-size="14" font-weight="700">1</text><text x="850" y="150" font-size="14" font-weight="700">N</text></g>
</svg>