<svg xmlns="http://www.w3.org/2000/svg" viewBox="79 -973 1015 695" width="1015" height="695" role="img" aria-labelledby="t d" font-family="DejaVu Sans, Verdana, Arial, sans-serif" xmlns:c2pa="http://c2pa.org/manifest"><metadata><c2pa:manifest>AAAWgmp1bWIAAAAeanVtZGMycGEAEQAQgAAAqgA4m3EDYzJwYQAAABZcanVtYgAAAEdqdW1kYzJtYQARABCAAACqADibcQN1cm46YzJwYTplZGE5NzA4ZC0yZGFjLTQzZWQtYTdhNy0xODIwZWM1ZGFiYTAAAAADl2p1bWIAAAApanVtZGMyYXMAEQAQgAAAqgA4m3EDYzJwYS5hc3NlcnRpb25zAAAAALxqdW1iAAAARGp1bWRjYm9yABEAEIAAAKoAOJtxE2MycGEuaW5ncmVkaWVudC52MwAAAAAYYzJzaKoDA5Lc0AoTY2fRzCPJxO8AAABwY2JvcqNpZGM6Zm9ybWF0bWltYWdlL3N2Zyt4bWxqaW5zdGFuY2VJRHgseG1wOmlpZDo0YTYxNWYxNi05Y2ZlLTRkZDAtYjdhMi0yZmQ3ODA4MjYwYzNscmVsYXRpb25zaGlwaHBhcmVudE9mAAAB4mp1bWIAAABBanVtZGNib3IAEQAQgAAAqgA4m3ETYzJwYS5hY3Rpb25zLnYyAAAAABhjMnNoAmcSUVQ4ktMIAY2/fWGDWAAAAZljYm9yomdhY3Rpb25zgqJmYWN0aW9ua2MycGEub3BlbmVkanBhcmFtZXRlcnOha2luZ3JlZGllbnRzgaJjdXJseC1zZWxmI2p1bWJmPWMycGEuYXNzZXJ0aW9ucy9jMnBhLmluZ3JlZGllbnQudjNkaGFzaFggTUBhVbU84JpvExY3wMqmX74d6eXb4vhaHIiW2oROT0ykZmFjdGlvbngdY29tLmFudGhyb3BpYy5jbGF1ZGUucHJvdmlkZWRqcGFyYW1ldGVyc6F4H2NvbS5hbnRocm9waWMub3JpZ2luLWNvbmZpZGVuY2VndW5rbm93bmtkZXNjcmlwdGlvbnhmQ2xhdWRlIHByb3ZpZGVkIHRoaXMgZmlsZSBhdCB0aGUgcmVxdWVzdCBvZiBhIHVzZXIgYW5kIG1heSBoYXZlIGNyZWF0ZWQgb3IgbW9kaWZpZWQgdGhlIGZpbGUgY29udGVudHMubXNvZnR3YXJlQWdlbnShZG5hbWVmQ2xhdWRlcmFsbEFjdGlvbnNJbmNsdWRlZPUAAADIanVtYgAAAEBqdW1kY2JvcgARABCAAACqADibcRNjMnBhLmhhc2guZGF0YQAAAAAYYzJzaFNZAsauoJ/s0Ih1+21tn5MAAACAY2JvcqVjYWxnZnNoYTI1NmNwYWRNAAAAAAAAAAAAAAAAAGRoYXNoWCDmhSyLUENBmW8sMCtA9rrzT2vsd8Pbws2/VzYYgK81WWRuYW1lbmp1bWJmIG1hbmlmZXN0amV4Y2x1c2lvbnOBomVzdGFydBjzZmxlbmd0aBkeBAAAAj5qdW1iAAAAJ2p1bWRjMmNsABEAEIAAAKoAOJtxA2MycGEuY2xhaW0udjIAAAACD2Nib3KlY2FsZ2ZzaGEyNTZpc2lnbmF0dXJleE1zZWxmI2p1bWJmPS9jMnBhL3VybjpjMnBhOmVkYTk3MDhkLTJkYWMtNDNlZC1hN2E3LTE4MjBlYzVkYWJhMC9jMnBhLnNpZ25hdHVyZWppbnN0YW5jZUlEeCx4bXA6aWlkOjkxZTgyYTgxLTQ5MWQtNDFkNi05NzM3LTRkOGNkZTM2NzEyY3JjcmVhdGVkX2Fzc2VydGlvbnODomN1cmx4LXNlbGYjanVtYmY9YzJwYS5hc3NlcnRpb25zL2MycGEuaW5ncmVkaWVudC52M2RoYXNoWCBNQGFVtTzgmm8TFjfAyqZfvh3p5dvi+FociJbahE5PTKJjdXJseCpzZWxmI2p1bWJmPWMycGEuYXNzZXJ0aW9ucy9jMnBhLmFjdGlvbnMudjJkaGFzaFggul+d2bmB+kgoMEAr75hGqyeYW/foEeh98ZOJbddwR2OiY3VybHgpc2VsZiNqdW1iZj1jMnBhLmFzc2VydGlvbnMvYzJwYS5oYXNoLmRhdGFkaGFzaFggI6s6MqzScrpY8dlY3D7BBBtMUyxWwSgx/uskUD/akHV0Y2xhaW1fZ2VuZXJhdG9yX2luZm+jZG5hbWVvQW50aHJvcGljIEZpbGVzZ3ZlcnNpb25lMS4wLjBrc3BlY1ZlcnNpb25lMi40LjAAABA4anVtYgAAAChqdW1kYzJjcwARABCAAACqADibcQNjMnBhLnNpZ25hdHVyZQAAABAIY2JvctKEWQISogEmGCFZAgowggIGMIIBjaADAgECAhRA5aAK7sI50L64g/oGQgU9Z1UTADAKBggqhkjOPQQDAzBJMRcwFQYDVQQKEw5BbnRocm9waWMsIFBCQzEuMCwGA1UEAxMlQW50aHJvcGljIENvbnRlbnQgQ3JlZGVudGlhbHMgUm9vdCBDQTAeFw0yNjA4MDcxODQzNTZaFw0yODA4MDYxOTQzNTZaMEQxFzAVBgNVBAoTDkFudGhyb3BpYywgUEJDMSkwJwYDVQQDEyBBbnRocm9waWMgQ2xhdWRlIENvbnRlbnQgU2lnbmluZzBZMBMGByqGSM49AgEGCCqGSM49AwEHA0IABJh6CmvLUBgFFNU0vUKlOVtE6djd17L5SuwX0LemFisBM3dkd/3cyjxFA3Qo5S46fX0/ihY0VZ7mfb9KF703t5OjWDBWMA4GA1UdDwEB/wQEAwIHgDAVBgNVHSUEDjAMBgorBgEEAYPoXgIBMAwGA1UdEwEB/wQCMAAwHwYDVR0jBBgwFoAUzlHiBIFOZFsj+OPEz5o+nMHXXMIwCgYIKoZIzj0EAwMDZwAwZAIwMXMdFJ4BetLLVY7ORuE9noqbbAZOZn/aArXyTwFAZfKrPzxF2vPoJNf1+UCdg1XGAjBwX1zd9WGqYkqmL5SFqw1QySjr1zJfpJM9+1rdDwSPLMOPOjKuiXjoU/pUUeG9RwmhY3BhZFkNngAAAAAAAAAAAAAAAAAAAAAAAAAAAAAAAAAAAAAAAAAAAAAAAAAAAAAAAAAAAAAAAAAAAAAAAAAAAAAAAAAAAAAAAAAAAAAAAAAAAAAAAAAAAAAAAAAAAAAAAAAAAAAAAAAAAAAAAAAAAAAAAAAAAAAAAAAAAAAAAAAAAAAAAAAAAAAAAAAAAAAAAAAAAAAAAAAAAAAAAAAAAAAAAAAAAAAAAAAAAAAAAAAAAAAAAAAAAAAAAAAAAAAAAAAAAAAAAAAAAAAAAAAAAAAAAAAAAAAAAAAAAAAAAAAAAAAAAAAAAAAAAAAAAAAAAAAAAAAAAAAAAAAAAAAAAAAAAAAAAAAAAAAAAAAAAAAAAAAAAAAAAAAAAAAAAAAAAAAAAAAAAAAAAAAAAAAAAAAAAAAAAAAAAAAAAAAAAAAAAAAAAAAAAAAAAAAAAAAAAAAAAAAAAAAAAAAAAAAAAAAAAAAAAAAAAAAAAAAAAAAAAAAAAAAAAAAAAAAAAAAAAAAAAAAAAAAAAAAAAAAAAAAAAAAAAAAAAAAAAAAAAAAAAAAAAAAAAAAAAAAAAAAAAAAAAAAAAAAAAAAAAAAAAAAAAAAAAAAAAAAAAAAAAAAAAAAAAAAAAAAAAAAAAAAAAAAAAAAAAAAAAAAAAAAAAAAAAAAAAAAAAAAAAAAAAAAAAAAAAAAAAAAAAAAAAAAAAAAAAAAAAAAAAAAAAAAAAAAAAAAAAAAAAAAAAAAAAAAAAAAAAAAAAAAAAAAAAAAAAAAAAAAAAAAAAAAAAAAAAAAAAAAAAAAAAAAAAAAAAAAAAAAAAAAAAAAAAAAAAAAAAAAAAAAAAAAAAAAAAAAAAAAAAAAAAAAAAAAAAAAAAAAAAAAAAAAAAAAAAAAAAAAAAAAAAAAAAAAAAAAAAAAAAAAAAAAAAAAAAAAAAAAAAAAAAAAAAAAAAAAAAAAAAAAAAAAAAAAAAAAAAAAAAAAAAAAAAAAAAAAAAAAAAAAAAAAAAAAAAAAAAAAAAAAAAAAAAAAAAAAAAAAAAAAAAAAAAAAAAAAAAAAAAAAAAAAAAAAAAAAAAAAAAAAAAAAAAAAAAAAAAAAAAAAAAAAAAAAAAAAAAAAAAAAAAAAAAAAAAAAAAAAAAAAAAAAAAAAAAAAAAAAAAAAAAAAAAAAAAAAAAAAAAAAAAAAAAAAAAAAAAAAAAAAAAAAAAAAAAAAAAAAAAAAAAAAAAAAAAAAAAAAAAAAAAAAAAAAAAAAAAAAAAAAAAAAAAAAAAAAAAAAAAAAAAAAAAAAAAAAAAAAAAAAAAAAAAAAAAAAAAAAAAAAAAAAAAAAAAAAAAAAAAAAAAAAAAAAAAAAAAAAAAAAAAAAAAAAAAAAAAAAAAAAAAAAAAAAAAAAAAAAAAAAAAAAAAAAAAAAAAAAAAAAAAAAAAAAAAAAAAAAAAAAAAAAAAAAAAAAAAAAAAAAAAAAAAAAAAAAAAAAAAAAAAAAAAAAAAAAAAAAAAAAAAAAAAAAAAAAAAAAAAAAAAAAAAAAAAAAAAAAAAAAAAAAAAAAAAAAAAAAAAAAAAAAAAAAAAAAAAAAAAAAAAAAAAAAAAAAAAAAAAAAAAAAAAAAAAAAAAAAAAAAAAAAAAAAAAAAAAAAAAAAAAAAAAAAAAAAAAAAAAAAAAAAAAAAAAAAAAAAAAAAAAAAAAAAAAAAAAAAAAAAAAAAAAAAAAAAAAAAAAAAAAAAAAAAAAAAAAAAAAAAAAAAAAAAAAAAAAAAAAAAAAAAAAAAAAAAAAAAAAAAAAAAAAAAAAAAAAAAAAAAAAAAAAAAAAAAAAAAAAAAAAAAAAAAAAAAAAAAAAAAAAAAAAAAAAAAAAAAAAAAAAAAAAAAAAAAAAAAAAAAAAAAAAAAAAAAAAAAAAAAAAAAAAAAAAAAAAAAAAAAAAAAAAAAAAAAAAAAAAAAAAAAAAAAAAAAAAAAAAAAAAAAAAAAAAAAAAAAAAAAAAAAAAAAAAAAAAAAAAAAAAAAAAAAAAAAAAAAAAAAAAAAAAAAAAAAAAAAAAAAAAAAAAAAAAAAAAAAAAAAAAAAAAAAAAAAAAAAAAAAAAAAAAAAAAAAAAAAAAAAAAAAAAAAAAAAAAAAAAAAAAAAAAAAAAAAAAAAAAAAAAAAAAAAAAAAAAAAAAAAAAAAAAAAAAAAAAAAAAAAAAAAAAAAAAAAAAAAAAAAAAAAAAAAAAAAAAAAAAAAAAAAAAAAAAAAAAAAAAAAAAAAAAAAAAAAAAAAAAAAAAAAAAAAAAAAAAAAAAAAAAAAAAAAAAAAAAAAAAAAAAAAAAAAAAAAAAAAAAAAAAAAAAAAAAAAAAAAAAAAAAAAAAAAAAAAAAAAAAAAAAAAAAAAAAAAAAAAAAAAAAAAAAAAAAAAAAAAAAAAAAAAAAAAAAAAAAAAAAAAAAAAAAAAAAAAAAAAAAAAAAAAAAAAAAAAAAAAAAAAAAAAAAAAAAAAAAAAAAAAAAAAAAAAAAAAAAAAAAAAAAAAAAAAAAAAAAAAAAAAAAAAAAAAAAAAAAAAAAAAAAAAAAAAAAAAAAAAAAAAAAAAAAAAAAAAAAAAAAAAAAAAAAAAAAAAAAAAAAAAAAAAAAAAAAAAAAAAAAAAAAAAAAAAAAAAAAAAAAAAAAAAAAAAAAAAAAAAAAAAAAAAAAAAAAAAAAAAAAAAAAAAAAAAAAAAAAAAAAAAAAAAAAAAAAAAAAAAAAAAAAAAAAAAAAAAAAAAAAAAAAAAAAAAAAAAAAAAAAAAAAAAAAAAAAAAAAAAAAAAAAAAAAAAAAAAAAAAAAAAAAAAAAAAAAAAAAAAAAAAAAAAAAAAAAAAAAAAAAAAAAAAAAAAAAAAAAAAAAAAAAAAAAAAAAAAAAAAAAAAAAAAAAAAAAAAAAAAAAAAAAAAAAAAAAAAAAAAAAAAAAAAAAAAAAAAAAAAAAAAAAAAAAAAAAAAAAAAAAAAAAAAAAAAAAAAAAAAAAAAAAAAAAAAAAAAAAAAAAAAAAAAAAAAAAAAAAAAAAAAAAAAAAAAAAAAAAAAAAAAAAAAAAAAAAAAAAAAAAAAAAAAAAAAAAAAAAAAAAAAAAAAAAAAAAAAAAAAAAAAAAAAAAAAAAAAAAAAAAAAAAAAAAAAAAAAAAAAAAAAAAAAAAAAAAAAAAAAAAAAAAAAAAAAAAAAAAAAAAAAAAAAAAAAAAAAAAAAAAAAAAAAAAAAAAAAAAAAAAAAAAAAAAAAAAAAAAAAAAAAAAAAAAAAAAAAAAAAAAAAAAAAAAAAAAAAAAAAAAAAAAAAAAAAAAAAAAAAAAAAAAAAAAAAAAAAAAAAAAAAAAAAAAAAAAAAAAAAAAAAAAAAAAAAAAAAAAAAAAAAAAAAAAAAAAAAAAAAAAAAAAAAAAAAAAAAAAAAAAAAAAAAAAAAAAAAAAAAAAAAAAAAAAAAAAAAAAAAAAAAAAAAAAAAAAAAAAAAAAAAAAAAAAAAAAAAAAAAAAAAAAAAAAAAAAAAAAAAAAAAAAAAAAAAAAAAAAAAAAAAAAAAAAAAAAAAAAAAAAAAAAAAAAAAAAAAAAAAAAAAAAAAAAAAAAAAAAAAAAAAAAAAAAAAAAAAAAAAAAAAAAAAAAAAAAAAAAAAAAAAAAAAAAAAAAAAAAAAAAAAAAAAAAAAAAAAAAAAAAAAAAAAAAAAAAAAAAAAAAAAAAAAAAAAAAAAAAAAAAAAAAAAAAAAAAAAAAAAAAAAAAAAAAAAAAAAAAAAAAAAAAAAAAAAAAAAAAAAAAAAAAAAAAAAAAAAAAAAAAAAAAAAAAAAAAAAAAAAAAAAAAAAAAAAAAAAAAAAAAAAAAAAAAAAAAAAAAAAAAAAAAAAAAAAAAAAAAAAAAAAAAAAAAAAAAAAAAAAAAAAAAAAAAAAAAAAAAAAAAAAAAAAAAAAAAAAAAAAAAAAAAAAAAAAAAAAAAAAAAAAAAAAAAAAAAAAAAAAAAAAAAAAAAAAAAAAAAAAAAAAAAAAAAAAAAAAAAAAAAAAAAAAAAAAAAAAAAAAAAAAAAAAAAAAAAAAAAAAAAAAAAAAAAAAAAAAAAAAAAAAAAAAAAAAAAAAAAAAAAAAAAAAAAAAAAAAAAAAAAAAAAAAAAAAAAAAAAAAAAAAAAAAAAAAAAAAAAAAAAAAAAAAAAAAAAAAAAAAAAAAAAAAAAAAAAAAAAAAAAAAAAAAAAAAAAAAAAAAAAAAAAAAAAAAAAAAAAAAAAAAAAAAAAAAAAAAAAAAAAAAAAAAAAAAAAAAAAAAAAAAAAAAAAAAAAAAAAAAAAAAAAAAAAAAAAAAAAAAAAAAAAAAAAAAAAAAAAAAAAAAAAAAAAAAAAAAAAAAAAAAAAAAAAAAAAAAAAAAAAAAAAAAAAAAAAAAAAAAAAAAAAAAAAAAAAAAAAAAAAAAAAAAAAAAAAAAAAAAAAAAAAAAAAAAAAAAAAAAAAAAAAAAAAAAAAAAAAAAAAAAAAAAAAAAAAAAAAAAAAAAAAAAAAAAAAAAAAAAAAAAAAAAAAAAAAAAAAAAAAAAAAAAAAAAAAAAAAAAAAAAAAAAAAAAAAAAAAAAAAAAAAAAAAAAAAAAAAAAAAAAAAAAAAAAAAAAAAAAAAAAAAAAAAAAAAAAAAAAAAAAAAAAAAAAAAAAAAAAAAAAAAAAAAAAAAAAAAAAAAPZYQDjIhIefbhSeHsFAHCQfC4J35hJD+aEO7ebQ+L9Do4pY0eXykEBv8fbiZsbvAMrfgnAK33mQZmzQ+1m2JiR14zI=</c2pa:manifest></metadata>
<title id="t">Grupos de supervivientes del apocalipsis zombi</title><desc id="d">INTEGRANTE forma parte de GRUPO. TRABAJADOR trabaja en GRUPO y se especializa (T,D) en MANTENIDO y VOLUNTARIO. GRUPO realiza TAREA (débil). TAREA se compone de TAREA.</desc>
<rect x="79" y="-973" width="1015" height="695" rx="10" fill="#ffffff" stroke="#cbd5e1"/>
<g stroke="#1f2937" stroke-width="1.4" fill="none"><line x1="304.9" y1="-613.9" x2="314.9" y2="-593.8"/><line x1="271.5" y1="-613.9" x2="220.0" y2="-566.9"/><line x1="251.6" y1="-623.4" x2="226.5" y2="-616.7"/><line x1="268.9" y1="-655.9" x2="231.2" y2="-686.9"/><line x1="298.2" y1="-655.9" x2="302.7" y2="-681.5"/><line x1="890.5" y1="-662.5" x2="906.4" y2="-651.7"/><line x1="861.5" y1="-662.5" x2="866.5" y2="-604.8"/><line x1="842.0" y1="-662.5" x2="825.3" y2="-642.6"/><line x1="799.9" y1="-704.5" x2="786.9" y2="-709.1"/><line x1="853.0" y1="-704.5" x2="838.9" y2="-748.9"/><line x1="877.3" y1="-704.5" x2="908.1" y2="-741.3"/><line x1="923.1" y1="-689.1" x2="949.0" y2="-691.3"/><line x1="399.5" y1="-479.2" x2="388.2" y2="-446.9"/><line x1="361.9" y1="-521.2" x2="338.3" y2="-532.1"/><line x1="410.6" y1="-521.2" x2="415.1" y2="-546.8"/><line x1="702.4" y1="-372.0" x2="728.3" y2="-369.7"/><line x1="639.0" y1="-356.4" x2="636.7" y2="-330.5"/><line x1="256.4" y1="-425.2" x2="249.7" y2="-400.1"/><line x1="198.0" y1="-463.4" x2="172.9" y2="-470.1"/><line x1="267.6" y1="-467.2" x2="274.4" y2="-492.3"/><line x1="319.9" y1="-849.9" x2="300.0" y2="-833.2"/><line x1="303.0" y1="-867.2" x2="277.1" y2="-865.0"/><line x1="303.0" y1="-881.7" x2="286.4" y2="-885.9"/><line x1="327.0" y1="-891.9" x2="300.6" y2="-922.6"/><line x1="352.6" y1="-891.9" x2="361.5" y2="-916.3"/><line x1="497.2" y1="-644.4" x2="337.4" y2="-636.9"/><line x1="564.9" y1="-650.2" x2="796.2" y2="-676.4"/><line x1="606.6" y1="-557.9" x2="337.4" y2="-624.3"/><line x1="650.2" y1="-505.7" x2="471.8" y2="-501.6"/><line x1="394.9" y1="-708.9" x2="323.0" y2="-655.9"/><line x1="409.1" y1="-775.4" x2="359.1" y2="-849.9"/><path d="M538.3 -899.9 Q529.5 -946.1 387.0 -888.0" fill="none"/><path d="M536.5 -831.9 Q525.3 -786.2 387.0 -851.2" fill="none"/><line x1="469.1" y1="-395.2" x2="419.4" y2="-479.2"/><line x1="579.3" y1="-383.8" x2="469.1" y2="-395.2"/><line x1="326.0" y1="-430.5" x2="469.1" y2="-395.2"/></g>
<polygon points="419.4,-479.2 431.2,-471.0 420.8,-464.9" fill="#111111" stroke="none"/>
<circle cx="469.1" cy="-395.2" r="3.2" fill="#111111"/>
<rect x="251.6" y="-655.9" width="85.8" height="42.0" fill="#ffffff" stroke="#111111" stroke-width="1.8"/>
<rect x="796.2" y="-704.5" width="126.8" height="42.0" fill="#ffffff" stroke="#111111" stroke-width="1.8"/>
<rect x="342.1" y="-521.2" width="129.7" height="42.0" fill="#ffffff" stroke="#111111" stroke-width="1.8"/>
<rect x="579.3" y="-398.4" width="123.2" height="42.0" fill="#ffffff" stroke="#111111" stroke-width="1.8"/>
<rect x="198.0" y="-467.2" width="128.0" height="42.0" fill="#ffffff" stroke="#111111" stroke-width="1.8"/>
<rect x="303.0" y="-891.9" width="84.0" height="42.0" fill="#ffffff" stroke="#111111" stroke-width="1.8"/>
<rect x="307.0" y="-887.9" width="76.0" height="34.0" fill="none" stroke="#111111" stroke-width="1.4"/>
<polygon points="497.2,-644.4 532.9,-626.4 529.3,-668.2" fill="#ffffff" stroke="none"/>
<polygon points="564.9,-650.2 532.9,-626.4 529.3,-668.2" fill="#111111" stroke="none"/>
<polygon points="497.2,-644.4 532.9,-626.4 564.9,-650.2 529.3,-668.2" fill="none" stroke="#111111" stroke-width="1.8" stroke-linejoin="round"/>
<line x1="532.9" y1="-626.4" x2="529.3" y2="-668.2" stroke="#111111" stroke-width="1"/>
<polygon points="606.6,-557.9 612.3,-518.3 644.5,-545.2" fill="#ffffff" stroke="none"/>
<polygon points="650.2,-505.7 612.3,-518.3 644.5,-545.2" fill="#111111" stroke="none"/>
<polygon points="606.6,-557.9 612.3,-518.3 650.2,-505.7 644.5,-545.2" fill="none" stroke="#111111" stroke-width="1.8" stroke-linejoin="round"/>
<line x1="612.3" y1="-518.3" x2="644.5" y2="-545.2" stroke="#111111" stroke-width="1"/>
<polygon points="394.9,-708.9 422.6,-737.8 381.5,-746.5" fill="#ffffff" stroke="none"/>
<polygon points="409.1,-775.4 422.6,-737.8 381.5,-746.5" fill="#111111" stroke="none"/>
<polygon points="394.9,-708.9 422.6,-737.8 409.1,-775.4 381.5,-746.5" fill="none" stroke="#111111" stroke-width="1.8" stroke-linejoin="round"/>
<line x1="422.6" y1="-737.8" x2="381.5" y2="-746.5" stroke="#111111" stroke-width="1"/>
<polygon points="538.3,-899.9 516.4,-866.4 558.4,-865.3" fill="#ffffff" stroke="none"/>
<polygon points="536.5,-831.9 516.4,-866.4 558.4,-865.3" fill="#111111" stroke="none"/>
<polygon points="538.3,-899.9 516.4,-866.4 536.5,-831.9 558.4,-865.3" fill="none" stroke="#111111" stroke-width="1.8" stroke-linejoin="round"/>
<line x1="516.4" y1="-866.4" x2="558.4" y2="-865.3" stroke="#111111" stroke-width="1"/>
<ellipse cx="321.6" cy="-580.2" rx="27.0" ry="14.0" fill="#ffffff" stroke="#111111" stroke-width="1.4"/>
<ellipse cx="205.8" cy="-553.9" rx="38.5" ry="14.0" fill="#ffffff" stroke="#111111" stroke-width="1.4"/>
<ellipse cx="189.1" cy="-606.7" rx="53.4" ry="14.0" fill="#ffffff" stroke="#111111" stroke-width="1.4"/>
<ellipse cx="215.6" cy="-699.7" rx="38.2" ry="14.0" fill="#ffffff" stroke="#111111" stroke-width="1.4"/>
<ellipse cx="305.2" cy="-695.5" rx="37.0" ry="14.0" fill="#ffffff" stroke="#111111" stroke-width="1.4"/>
<ellipse cx="924.9" cy="-639.1" rx="42.0" ry="14.0" fill="#ffffff" stroke="#111111" stroke-width="1.4"/>
<ellipse cx="867.8" cy="-590.8" rx="27.0" ry="14.0" fill="#ffffff" stroke="#111111" stroke-width="1.4"/>
<ellipse cx="814.1" cy="-629.2" rx="38.5" ry="14.0" fill="#ffffff" stroke="#111111" stroke-width="1.4"/>
<ellipse cx="754.4" cy="-720.5" rx="56.4" ry="14.0" fill="#ffffff" stroke="#111111" stroke-width="1.4"/>
<ellipse cx="834.5" cy="-762.8" rx="34.2" ry="14.0" fill="#ffffff" stroke="#111111" stroke-width="1.4"/>
<ellipse cx="919.3" cy="-754.7" rx="38.2" ry="14.0" fill="#ffffff" stroke="#111111" stroke-width="1.4"/>
<ellipse cx="1007.4" cy="-696.5" rx="62.7" ry="14.0" fill="#ffffff" stroke="#111111" stroke-width="1.4" stroke-dasharray="5 3"/>
<ellipse cx="383.3" cy="-433.0" rx="50.8" ry="14.0" fill="#ffffff" stroke="#111111" stroke-width="1.4"/>
<ellipse cx="312.2" cy="-544.3" rx="52.7" ry="14.0" fill="#ffffff" stroke="#111111" stroke-width="1.4"/>
<ellipse cx="417.6" cy="-560.7" rx="34.2" ry="14.0" fill="#ffffff" stroke="#111111" stroke-width="1.4"/>
<ellipse cx="779.4" cy="-365.3" rx="53.8" ry="14.0" fill="#ffffff" stroke="#111111" stroke-width="1.4"/>
<ellipse cx="635.5" cy="-316.5" rx="27.8" ry="14.0" fill="#ffffff" stroke="#111111" stroke-width="1.4"/>
<ellipse cx="245.9" cy="-386.2" rx="27.8" ry="14.0" fill="#ffffff" stroke="#111111" stroke-width="1.4"/>
<ellipse cx="141.7" cy="-478.5" rx="38.9" ry="14.0" fill="#ffffff" stroke="#111111" stroke-width="1.4"/>
<ellipse cx="278.1" cy="-506.2" rx="27.0" ry="14.0" fill="#ffffff" stroke="#111111" stroke-width="1.4"/>
<ellipse cx="284.9" cy="-820.5" rx="36.4" ry="14.0" fill="#ffffff" stroke="#111111" stroke-width="1.4"/>
<ellipse cx="221.7" cy="-860.1" rx="59.0" ry="14.0" fill="#ffffff" stroke="#111111" stroke-width="1.4"/>
<ellipse cx="253.3" cy="-894.4" rx="41.5" ry="14.0" fill="#ffffff" stroke="#111111" stroke-width="1.4"/>
<ellipse cx="289.6" cy="-935.4" rx="27.0" ry="14.0" fill="#ffffff" stroke="#111111" stroke-width="1.4"/>
<ellipse cx="366.5" cy="-930.2" rx="35.1" ry="14.0" fill="#ffffff" stroke="#111111" stroke-width="1.4"/>
<rect x="347.2" y="-647.2" width="36.5" height="17" rx="3" fill="#ffffff" opacity="0.94"/><text x="365.4" y="-633.7" font-size="12" fill="#1e3a8a" text-anchor="middle" font-weight="700">(1,1)</text>
<text x="487.4" y="-649.6" font-size="11" fill="#111111" text-anchor="middle">1</text>
<rect x="749.5" y="-682.2" width="37.8" height="17" rx="3" fill="#ffffff" opacity="0.94"/><text x="768.4" y="-668.7" font-size="12" fill="#1e3a8a" text-anchor="middle" font-weight="700">(1,N)</text>
<text x="574.8" y="-637.0" font-size="11" fill="#111111" text-anchor="middle">N</text>
<rect x="346.4" y="-626.6" width="36.5" height="17" rx="3" fill="#ffffff" opacity="0.94"/><text x="364.6" y="-613.1" font-size="12" fill="#1e3a8a" text-anchor="middle" font-weight="700">(1,1)</text>
<text x="608.5" y="-567.2" font-size="11" fill="#111111" text-anchor="middle">1</text>
<rect x="480.9" y="-511.3" width="37.8" height="17" rx="3" fill="#ffffff" opacity="0.94"/><text x="499.8" y="-497.8" font-size="12" fill="#1e3a8a" text-anchor="middle" font-weight="700">(0,N)</text>
<text x="648.3" y="-488.4" font-size="11" fill="#111111" text-anchor="middle">N</text>
<rect x="327.3" y="-681.5" width="36.5" height="17" rx="3" fill="#ffffff" opacity="0.94"/><text x="345.6" y="-668.0" font-size="12" fill="#1e3a8a" text-anchor="middle" font-weight="700">(1,1)</text>
<text x="383.3" y="-698.2" font-size="11" fill="#111111" text-anchor="middle">1</text>
<rect x="355.8" y="-835.7" width="37.8" height="17" rx="3" fill="#ffffff" opacity="0.94"/><text x="374.7" y="-822.2" font-size="12" fill="#1e3a8a" text-anchor="middle" font-weight="700">(0,N)</text>
<text x="420.8" y="-778.1" font-size="11" fill="#111111" text-anchor="middle">N</text>
<text x="384.6" y="-851.0" font-size="11" font-weight="700" fill="#111111" text-anchor="middle">ID</text>
<rect x="444.5" y="-923.1" width="36.5" height="17" rx="3" fill="#ffffff" opacity="0.94"/><text x="462.7" y="-909.6" font-size="12" fill="#1e3a8a" text-anchor="middle" font-weight="700">(0,1)</text>
<text x="548.5" y="-904.6" font-size="11" fill="#111111" text-anchor="middle">1</text>
<text x="458.0" y="-925.1" font-size="11" fill="#475569" text-anchor="middle" font-style="italic">tarea</text>
<rect x="441.8" y="-830.4" width="37.8" height="17" rx="3" fill="#ffffff" opacity="0.94"/><text x="460.7" y="-816.9" font-size="12" fill="#1e3a8a" text-anchor="middle" font-weight="700">(0,N)</text>
<text x="526.3" y="-819.1" font-size="11" fill="#111111" text-anchor="middle">N</text>
<text x="453.8" y="-801.6" font-size="11" fill="#475569" text-anchor="middle" font-style="italic">subtarea</text>
<rect x="473.9" y="-415.4" width="28.4" height="17" rx="3" fill="#ffffff" opacity="0.94"/><text x="488.1" y="-401.9" font-size="12" fill="#111111" text-anchor="middle" font-weight="700">T,D</text>
<text x="294.5" y="-629.9" font-size="13" font-weight="700" text-anchor="middle" fill="#111111">GRUPO</text>
<text x="859.6" y="-678.5" font-size="13" font-weight="700" text-anchor="middle" fill="#111111">INTEGRANTE</text>
<text x="406.9" y="-495.2" font-size="13" font-weight="700" text-anchor="middle" fill="#111111">TRABAJADOR</text>
<text x="640.8" y="-372.4" font-size="13" font-weight="700" text-anchor="middle" fill="#111111">MANTENIDO</text>
<text x="262.0" y="-441.2" font-size="13" font-weight="700" text-anchor="middle" fill="#111111">VOLUNTARIO</text>
<text x="345.0" y="-865.9" font-size="13" font-weight="700" text-anchor="middle" fill="#111111">TAREA</text>
<text x="528.1" y="-676.7" font-size="12.5" font-weight="700" font-style="italic" text-anchor="middle" fill="#111111">forma parte de</text>
<text x="658.4" y="-552.3" font-size="12.5" font-weight="700" font-style="italic" text-anchor="middle" fill="#111111">trabaja en</text>
<text x="456.1" y="-726.1" font-size="12.5" font-weight="700" font-style="italic" text-anchor="middle" fill="#111111">realiza</text>
<text x="622.5" y="-859.1" font-size="12.5" font-weight="700" font-style="italic" text-anchor="middle" fill="#111111">se compone de</text>
<text x="321.6" y="-576.2" font-size="12" text-anchor="middle" fill="#111111">tipo</text>
<text x="205.8" y="-549.9" font-size="12" text-anchor="middle" fill="#111111">provincia</text>
<text x="189.1" y="-602.7" font-size="12" text-anchor="middle" fill="#111111">denominación</text>
<text x="215.6" y="-695.7" font-size="12" text-anchor="middle" fill="#111111">dirección</text>
<text x="305.2" y="-691.5" font-size="12" text-anchor="middle" fill="#111111">id_grupo</text>
<line x1="279.2" y1="-687.5" x2="331.3" y2="-687.5" stroke="#111111" stroke-width="1.3"/>
<text x="924.9" y="-635.1" font-size="12" text-anchor="middle" fill="#111111">fecha_alta</text>
<text x="867.8" y="-586.8" font-size="12" text-anchor="middle" fill="#111111">dni</text>
<line x1="858.5" y1="-582.8" x2="877.0" y2="-582.8" stroke="#111111" stroke-width="1.3"/>
<text x="814.1" y="-625.2" font-size="12" text-anchor="middle" fill="#111111">provincia</text>
<text x="754.4" y="-716.5" font-size="12" text-anchor="middle" fill="#111111">cuota_mensual</text>
<text x="834.5" y="-758.8" font-size="12" text-anchor="middle" fill="#111111">nombre</text>
<text x="919.3" y="-750.7" font-size="12" text-anchor="middle" fill="#111111">dirección</text>
<text x="1007.4" y="-692.5" font-size="12" text-anchor="middle" fill="#111111">aportación_anual</text>
<text x="383.3" y="-429.0" font-size="12" text-anchor="middle" fill="#111111">id_trabajador</text>
<line x1="343.5" y1="-425.0" x2="423.1" y2="-425.0" stroke="#111111" stroke-width="1.3"/>
<text x="312.2" y="-540.3" font-size="12" text-anchor="middle" fill="#111111">fecha_ingreso</text>
<text x="417.6" y="-556.7" font-size="12" text-anchor="middle" fill="#111111">nombre</text>
<text x="779.4" y="-361.3" font-size="12" text-anchor="middle" fill="#111111">cantidad_total</text>
<text x="635.5" y="-312.5" font-size="12" text-anchor="middle" fill="#111111">cargo</text>
<text x="245.9" y="-382.2" font-size="12" text-anchor="middle" fill="#111111">horas</text>
<text x="141.7" y="-474.5" font-size="12" text-anchor="middle" fill="#111111">profesión</text>
<text x="278.1" y="-502.2" font-size="12" text-anchor="middle" fill="#111111">edad</text>
<text x="284.9" y="-816.5" font-size="12" text-anchor="middle" fill="#111111">nº_tarea</text>
<line x1="259.5" y1="-812.5" x2="310.2" y2="-812.5" stroke="#111111" stroke-width="1.3" stroke-dasharray="4 3"/>
<text x="221.7" y="-856.1" font-size="12" text-anchor="middle" fill="#111111">nº_beneficiarios</text>
<text x="253.3" y="-890.4" font-size="12" text-anchor="middle" fill="#111111">zona_libre</text>
<text x="289.6" y="-931.4" font-size="12" text-anchor="middle" fill="#111111">zona</text>
<text x="366.5" y="-926.2" font-size="12" text-anchor="middle" fill="#111111">objetivo</text>
</svg>