<svg xmlns="http://www.w3.org/2000/svg" viewBox="-265 -1574 1481 978" width="1481" height="978" role="img" aria-labelledby="t d" font-family="DejaVu Sans, Verdana, Arial, sans-serif" xmlns:c2pa="http://c2pa.org/manifest"><metadata><c2pa:manifest>AAAWgmp1bWIAAAAeanVtZGMycGEAEQAQgAAAqgA4m3EDYzJwYQAAABZcanVtYgAAAEdqdW1kYzJtYQARABCAAACqADibcQN1cm46YzJwYTpmNmI3NmI3Mi1iMzI5LTQwZWEtODdmMC0xYWZmYmY2YTdiMTEAAAADl2p1bWIAAAApanVtZGMyYXMAEQAQgAAAqgA4m3EDYzJwYS5hc3NlcnRpb25zAAAAALxqdW1iAAAARGp1bWRjYm9yABEAEIAAAKoAOJtxE2MycGEuaW5ncmVkaWVudC52MwAAAAAYYzJzaPJC7Oty+ttVC8talz9V0tMAAABwY2JvcqNpZGM6Zm9ybWF0bWltYWdlL3N2Zyt4bWxqaW5zdGFuY2VJRHgseG1wOmlpZDowMWU5NDNjOS02NWQzLTRkMjYtOTczNC1jNDZlYjdkMDk4ZjJscmVsYXRpb25zaGlwaHBhcmVudE9mAAAB4mp1bWIAAABBanVtZGNib3IAEQAQgAAAqgA4m3ETYzJwYS5hY3Rpb25zLnYyAAAAABhjMnNo8fW53xiJXj+NLQptZfSZeAAAAZljYm9yomdhY3Rpb25zgqJmYWN0aW9ua2MycGEub3BlbmVkanBhcmFtZXRlcnOha2luZ3JlZGllbnRzgaJjdXJseC1zZWxmI2p1bWJmPWMycGEuYXNzZXJ0aW9ucy9jMnBhLmluZ3JlZGllbnQudjNkaGFzaFggPeNKK78DvRuouwvgTseowwPiaLqc6MT9EClW3cbt+PKkZmFjdGlvbngdY29tLmFudGhyb3BpYy5jbGF1ZGUucHJvdmlkZWRqcGFyYW1ldGVyc6F4H2NvbS5hbnRocm9waWMub3JpZ2luLWNvbmZpZGVuY2VndW5rbm93bmtkZXNjcmlwdGlvbnhmQ2xhdWRlIHByb3ZpZGVkIHRoaXMgZmlsZSBhdCB0aGUgcmVxdWVzdCBvZiBhIHVzZXIgYW5kIG1heSBoYXZlIGNyZWF0ZWQgb3IgbW9kaWZpZWQgdGhlIGZpbGUgY29udGVudHMubXNvZnR3YXJlQWdlbnShZG5hbWVmQ2xhdWRlcmFsbEFjdGlvbnNJbmNsdWRlZPUAAADIanVtYgAAAEBqdW1kY2JvcgARABCAAACqADibcRNjMnBhLmhhc2guZGF0YQAAAAAYYzJzaBChZ1E7QZmTXkboed5y9OMAAACAY2JvcqVjYWxnZnNoYTI1NmNwYWRNAAAAAAAAAAAAAAAAAGRoYXNoWCAhze5Gq8FI2hvkRRNqJtsARJiB9Tvcp8p3JbimUTq49GRuYW1lbmp1bWJmIG1hbmlmZXN0amV4Y2x1c2lvbnOBomVzdGFydBj2Zmxlbmd0aBkeBAAAAj5qdW1iAAAAJ2p1bWRjMmNsABEAEIAAAKoAOJtxA2MycGEuY2xhaW0udjIAAAACD2Nib3KlY2FsZ2ZzaGEyNTZpc2lnbmF0dXJleE1zZWxmI2p1bWJmPS9jMnBhL3VybjpjMnBhOmY2Yjc2YjcyLWIzMjktNDBlYS04N2YwLTFhZmZiZjZhN2IxMS9jMnBhLnNpZ25hdHVyZWppbnN0YW5jZUlEeCx4bXA6aWlkOjk1OGMyNDk2LTM2ODctNDQ2YS1hMWU4LTlhMTU0ZjUxZjVlZXJjcmVhdGVkX2Fzc2VydGlvbnODomN1cmx4LXNlbGYjanVtYmY9YzJwYS5hc3NlcnRpb25zL2MycGEuaW5ncmVkaWVudC52M2RoYXNoWCA940orvwO9G6i7C+BOx6jDA+JoupzoxP0QKVbdxu348qJjdXJseCpzZWxmI2p1bWJmPWMycGEuYXNzZXJ0aW9ucy9jMnBhLmFjdGlvbnMudjJkaGFzaFgg+LgNvucJEAnKchaiw95YgUV0EuZ1H5xSbfH0iG14PtmiY3VybHgpc2VsZiNqdW1iZj1jMnBhLmFzc2VydGlvbnMvYzJwYS5oYXNoLmRhdGFkaGFzaFggMDqyMvmQYQ9RFFlTrDku6G7CcFlklq2doA90i2P1u790Y2xhaW1fZ2VuZXJhdG9yX2luZm+jZG5hbWVvQW50aHJvcGljIEZpbGVzZ3ZlcnNpb25lMS4wLjBrc3BlY1ZlcnNpb25lMi40LjAAABA4anVtYgAAAChqdW1kYzJjcwARABCAAACqADibcQNjMnBhLnNpZ25hdHVyZQAAABAIY2JvctKEWQISogEmGCFZAgowggIGMIIBjaADAgECAhRA5aAK7sI50L64g/oGQgU9Z1UTADAKBggqhkjOPQQDAzBJMRcwFQYDVQQKEw5BbnRocm9waWMsIFBCQzEuMCwGA1UEAxMlQW50aHJvcGljIENvbnRlbnQgQ3JlZGVudGlhbHMgUm9vdCBDQTAeFw0yNjA4MDcxODQzNTZaFw0yODA4MDYxOTQzNTZaMEQxFzAVBgNVBAoTDkFudGhyb3BpYywgUEJDMSkwJwYDVQQDEyBBbnRocm9waWMgQ2xhdWRlIENvbnRlbnQgU2lnbmluZzBZMBMGByqGSM49AgEGCCqGSM49AwEHA0IABJh6CmvLUBgFFNU0vUKlOVtE6djd17L5SuwX0LemFisBM3dkd/3cyjxFA3Qo5S46fX0/ihY0VZ7mfb9KF703t5OjWDBWMA4GA1UdDwEB/wQEAwIHgDAVBgNVHSUEDjAMBgorBgEEAYPoXgIBMAwGA1UdEwEB/wQCMAAwHwYDVR0jBBgwFoAUzlHiBIFOZFsj+OPEz5o+nMHXXMIwCgYIKoZIzj0EAwMDZwAwZAIwMXMdFJ4BetLLVY7ORuE9noqbbAZOZn/aArXyTwFAZfKrPzxF2vPoJNf1+UCdg1XGAjBwX1zd9WGqYkqmL5SFqw1QySjr1zJfpJM9+1rdDwSPLMOPOjKuiXjoU/pUUeG9RwmhY3BhZFkNngAAAAAAAAAAAAAAAAAAAAAAAAAAAAAAAAAAAAAAAAAAAAAAAAAAAAAAAAAAAAAAAAAAAAAAAAAAAAAAAAAAAAAAAAAAAAAAAAAAAAAAAAAAAAAAAAAAAAAAAAAAAAAAAAAAAAAAAAAAAAAAAAAAAAAAAAAAAAAAAAAAAAAAAAAAAAAAAAAAAAAAAAAAAAAAAAAAAAAAAAAAAAAAAAAAAAAAAAAAAAAAAAAAAAAAAAAAAAAAAAAAAAAAAAAAAAAAAAAAAAAAAAAAAAAAAAAAAAAAAAAAAAAAAAAAAAAAAAAAAAAAAAAAAAAAAAAAAAAAAAAAAAAAAAAAAAAAAAAAAAAAAAAAAAAAAAAAAAAAAAAAAAAAAAAAAAAAAAAAAAAAAAAAAAAAAAAAAAAAAAAAAAAAAAAAAAAAAAAAAAAAAAAAAAAAAAAAAAAAAAAAAAAAAAAAAAAAAAAAAAAAAAAAAAAAAAAAAAAAAAAAAAAAAAAAAAAAAAAAAAAAAAAAAAAAAAAAAAAAAAAAAAAAAAAAAAAAAAAAAAAAAAAAAAAAAAAAAAAAAAAAAAAAAAAAAAAAAAAAAAAAAAAAAAAAAAAAAAAAAAAAAAAAAAAAAAAAAAAAAAAAAAAAAAAAAAAAAAAAAAAAAAAAAAAAAAAAAAAAAAAAAAAAAAAAAAAAAAAAAAAAAAAAAAAAAAAAAAAAAAAAAAAAAAAAAAAAAAAAAAAAAAAAAAAAAAAAAAAAAAAAAAAAAAAAAAAAAAAAAAAAAAAAAAAAAAAAAAAAAAAAAAAAAAAAAAAAAAAAAAAAAAAAAAAAAAAAAAAAAAAAAAAAAAAAAAAAAAAAAAAAAAAAAAAAAAAAAAAAAAAAAAAAAAAAAAAAAAAAAAAAAAAAAAAAAAAAAAAAAAAAAAAAAAAAAAAAAAAAAAAAAAAAAAAAAAAAAAAAAAAAAAAAAAAAAAAAAAAAAAAAAAAAAAAAAAAAAAAAAAAAAAAAAAAAAAAAAAAAAAAAAAAAAAAAAAAAAAAAAAAAAAAAAAAAAAAAAAAAAAAAAAAAAAAAAAAAAAAAAAAAAAAAAAAAAAAAAAAAAAAAAAAAAAAAAAAAAAAAAAAAAAAAAAAAAAAAAAAAAAAAAAAAAAAAAAAAAAAAAAAAAAAAAAAAAAAAAAAAAAAAAAAAAAAAAAAAAAAAAAAAAAAAAAAAAAAAAAAAAAAAAAAAAAAAAAAAAAAAAAAAAAAAAAAAAAAAAAAAAAAAAAAAAAAAAAAAAAAAAAAAAAAAAAAAAAAAAAAAAAAAAAAAAAAAAAAAAAAAAAAAAAAAAAAAAAAAAAAAAAAAAAAAAAAAAAAAAAAAAAAAAAAAAAAAAAAAAAAAAAAAAAAAAAAAAAAAAAAAAAAAAAAAAAAAAAAAAAAAAAAAAAAAAAAAAAAAAAAAAAAAAAAAAAAAAAAAAAAAAAAAAAAAAAAAAAAAAAAAAAAAAAAAAAAAAAAAAAAAAAAAAAAAAAAAAAAAAAAAAAAAAAAAAAAAAAAAAAAAAAAAAAAAAAAAAAAAAAAAAAAAAAAAAAAAAAAAAAAAAAAAAAAAAAAAAAAAAAAAAAAAAAAAAAAAAAAAAAAAAAAAAAAAAAAAAAAAAAAAAAAAAAAAAAAAAAAAAAAAAAAAAAAAAAAAAAAAAAAAAAAAAAAAAAAAAAAAAAAAAAAAAAAAAAAAAAAAAAAAAAAAAAAAAAAAAAAAAAAAAAAAAAAAAAAAAAAAAAAAAAAAAAAAAAAAAAAAAAAAAAAAAAAAAAAAAAAAAAAAAAAAAAAAAAAAAAAAAAAAAAAAAAAAAAAAAAAAAAAAAAAAAAAAAAAAAAAAAAAAAAAAAAAAAAAAAAAAAAAAAAAAAAAAAAAAAAAAAAAAAAAAAAAAAAAAAAAAAAAAAAAAAAAAAAAAAAAAAAAAAAAAAAAAAAAAAAAAAAAAAAAAAAAAAAAAAAAAAAAAAAAAAAAAAAAAAAAAAAAAAAAAAAAAAAAAAAAAAAAAAAAAAAAAAAAAAAAAAAAAAAAAAAAAAAAAAAAAAAAAAAAAAAAAAAAAAAAAAAAAAAAAAAAAAAAAAAAAAAAAAAAAAAAAAAAAAAAAAAAAAAAAAAAAAAAAAAAAAAAAAAAAAAAAAAAAAAAAAAAAAAAAAAAAAAAAAAAAAAAAAAAAAAAAAAAAAAAAAAAAAAAAAAAAAAAAAAAAAAAAAAAAAAAAAAAAAAAAAAAAAAAAAAAAAAAAAAAAAAAAAAAAAAAAAAAAAAAAAAAAAAAAAAAAAAAAAAAAAAAAAAAAAAAAAAAAAAAAAAAAAAAAAAAAAAAAAAAAAAAAAAAAAAAAAAAAAAAAAAAAAAAAAAAAAAAAAAAAAAAAAAAAAAAAAAAAAAAAAAAAAAAAAAAAAAAAAAAAAAAAAAAAAAAAAAAAAAAAAAAAAAAAAAAAAAAAAAAAAAAAAAAAAAAAAAAAAAAAAAAAAAAAAAAAAAAAAAAAAAAAAAAAAAAAAAAAAAAAAAAAAAAAAAAAAAAAAAAAAAAAAAAAAAAAAAAAAAAAAAAAAAAAAAAAAAAAAAAAAAAAAAAAAAAAAAAAAAAAAAAAAAAAAAAAAAAAAAAAAAAAAAAAAAAAAAAAAAAAAAAAAAAAAAAAAAAAAAAAAAAAAAAAAAAAAAAAAAAAAAAAAAAAAAAAAAAAAAAAAAAAAAAAAAAAAAAAAAAAAAAAAAAAAAAAAAAAAAAAAAAAAAAAAAAAAAAAAAAAAAAAAAAAAAAAAAAAAAAAAAAAAAAAAAAAAAAAAAAAAAAAAAAAAAAAAAAAAAAAAAAAAAAAAAAAAAAAAAAAAAAAAAAAAAAAAAAAAAAAAAAAAAAAAAAAAAAAAAAAAAAAAAAAAAAAAAAAAAAAAAAAAAAAAAAAAAAAAAAAAAAAAAAAAAAAAAAAAAAAAAAAAAAAAAAAAAAAAAAAAAAAAAAAAAAAAAAAAAAAAAAAAAAAAAAAAAAAAAAAAAAAAAAAAAAAAAAAAAAAAAAAAAAAAAAAAAAAAAAAAAAAAAAAAAAAAAAAAAAAAAAAAAAAAAAAAAAAAAAAAAAAAAAAAAAAAAAAAAAAAAAAAAAAAAAAAAAAAAAAAAAAAAAAAAAAAAAAAAAAAAAAAAAAAAAAAAAAAAAAAAAAAAAAAAAAAAAAAAAAAAAAAAAAAAAAAAAAAAAAAAAAAAAAAAAAAAAAAAAAAAAAAAAAAAAAAAAAAAAAAAAAAAAAAAAAAAAAAAAAAAAAAAAAAAAAAAAAAAAAAAAAAAAAAAAAAAAAAAAAAAAAAAAAAAAAAAAAAAAAAAAAAAAAAAAAAAAAAAAAAAAAAAAAAAAAAAAAAAAAAAAAAAAAAAAAAAAAAAAAAAAAAAAAAAAAAAAAAAAAAAAAAAAAAAAAAAAAAAAAAAAAAAAAAAAAAAAAAAAAAAAAAAAAAAAAAAAAAAAAAAAAAAAAAAAAAAAAAAAAAAAAAAAAAAAAAAAAAAAAAAAAAAAAAAAAAAAAAAAAAAAAAAAAAAAAAAAAAAAAAAAAAAAAAAAAAAAAAAAAAAAAAAAAAAAAAAAAAAAAAAAAAAAAAAAAAAAAAAAAAAAAAAAAAAAAAAAAAAAAAAAAAAAAAAAAAAAAAAAAAAAAAAAAAAAAAAAAAAAAAAAAAAAAAAAAAAAAAAAAAAAAAAAAAAAAAAAAAAAAAAAAAAAAAAAAAAAAAAAAAAAAAAAAAAAAAAAAAAAAAAAAAAAAAAAAAAAAAAAAAAAAAAAAAAAAAAAAAAAAAAAAAAAAAAAAAAAAAAAAAAAAAAAAAAAAAAAAAAAAAAAAAAAAAAAAAAAAAAAAAAAAAAAAAAAAAAAAAAAAAAAAAAAAAAAAAAAAAAAAAAAAAAAAAAAAAAAAAAAAAAAAAAAAAAAAAAAAAAAAAAAAAAAAAAAAAAAAAAAAAAAAAAAAAAAAAAAAAAAAAAAAAAAAAAAAAAAAAAAAAAAAAAAAAAAAAAAAAAAAAAAAAAAAAAAAAAAAAAAAAAAAAAAAAAAAAAAAAAAAAAAAAAAAAAAAAAAAAAAAAAAAAAAAAAAAAAAAAAAAAAAAAAAAAAAAAAAAAAAAAAAAAAAAAAAAAAAAAAAAAAAAAAAAAAAAAAAAAAAAAAAAAAAAAAAAAAAAAAAAAAAAAAAAAAAAAAAAAAAAAAAAAAAAAAAAAAAAAAAAAAAAAAAAAAAAAAAAAAAAAAAAAAAAAAAAAAAAAAAAAAAAAAAAAAAAAAAAAAAAAAAAAAAAAAAAAAAAAAAAAAAAAAAAAAAAAAAAAAAAAAAAAAAAAAAAAAAAAAAAAAAAAAAAAAAAAAAAAAAAAAAAAAAAAAAAAAAAAAAAAAAAAAAAAAAAAAAAAAAAAAAAAAAAAAAAAAAAAAAAAAAAAAAAAAAAAAAAAAAAAAAAAAAAAAAAAAAAAAAAAAAAAAAAAAAAAAAAAAAAAAAAAAAAAAAAAAAAAAAAAAAAAAAAAAAAAAAAAAAAAAAAAAAAAAAAAAAAAAAAAAAAAAAAAAAAAAAAAAAAAAAAAAAAAAAAAAAAAAAAAAAAAAAAAAAAAAAAAAAAAAAAAAAAAAAAAAAAAAAAAAAAAAAAAAAAAAAAAAAAAAAAAAAAAAAAAAAAAAAAAAAAAAAAAAAAAAAAAAAAAAAAAAAAAAAAAPZYQGOqysVb2ABLGARJAmeQfeAaFdqZSnBnaYCJ641ThkuO9YpSAVs9D5tl24f2VgyR3VN37mr/J8sgTe1NvopACsI=</c2pa:manifest></metadata>
<title id="t">Muestra gastronómica: provincias, platos, restaurantes y vinos</title><desc id="d">PROVINCIA tiene LOCALIDAD (débil), que ubica RESTAURANTE (débil) y ofrece VISITA (débil), cultural o industrial. PLATO es típico de LOCALIDAD, RESTAURANTE se especializa en PLATO. BODEGA ofrece VINO y PLATO se aconseja con VINO.</desc>
<rect x="-265" y="-1574" width="1481" height="978" rx="10" fill="#ffffff" stroke="#cbd5e1"/>
<g stroke="#1f2937" stroke-width="1.4" fill="none"><line x1="1097.1" y1="-1474.6" x2="1123.1" y2="-1474.6"/><line x1="982.7" y1="-1474.6" x2="956.7" y2="-1474.6"/><line x1="1039.9" y1="-1495.6" x2="1039.9" y2="-1521.6"/><line x1="1058.5" y1="-991.9" x2="1064.7" y2="-990.5"/><line x1="1005.5" y1="-983.8" x2="1012.2" y2="-958.6"/><line x1="1036.2" y1="-1025.8" x2="1058.7" y2="-1038.8"/><line x1="532.9" y1="-812.6" x2="554.1" y2="-754.4"/><line x1="510.6" y1="-812.6" x2="495.7" y2="-791.3"/><line x1="530.9" y1="-854.6" x2="537.6" y2="-879.7"/><line x1="1025.6" y1="-729.2" x2="1051.6" y2="-729.2"/><line x1="996.6" y1="-708.2" x2="1023.4" y2="-694.3"/><line x1="959.8" y1="-708.2" x2="970.6" y2="-647.1"/><line x1="946.3" y1="-708.2" x2="935.3" y2="-684.6"/><line x1="986.1" y1="-750.2" x2="1007.4" y2="-765.1"/><line x1="211.6" y1="-1263.4" x2="185.6" y2="-1263.4"/><line x1="177.0" y1="-1456.6" x2="157.1" y2="-1473.3"/><line x1="441.2" y1="-1243.1" x2="461.1" y2="-1226.4"/><line x1="433.8" y1="-1285.1" x2="450.5" y2="-1305.0"/><line x1="227.4" y1="-715.1" x2="253.3" y2="-712.8"/><line x1="197.3" y1="-698.3" x2="214.0" y2="-678.4"/><line x1="154.7" y1="-698.3" x2="134.7" y2="-681.6"/><line x1="204.7" y1="-740.3" x2="224.6" y2="-757.0"/><line x1="-62.3" y1="-1307.3" x2="-37.2" y2="-1300.6"/><line x1="-121.9" y1="-1297.6" x2="-138.6" y2="-1277.7"/><line x1="-146.3" y1="-1325.4" x2="-169.6" y2="-1329.2"/><line x1="-137.4" y1="-1339.6" x2="-167.0" y2="-1358.3"/><line x1="-108.0" y1="-1339.6" x2="-112.5" y2="-1365.2"/><line x1="738.9" y1="-944.0" x2="728.6" y2="-972.3"/><line x1="1037.5" y1="-1288.0" x2="1039.6" y2="-1453.6"/><line x1="1031.7" y1="-1220.3" x2="1003.0" y2="-1025.8"/><line x1="714.0" y1="-912.8" x2="567.3" y2="-851.2"/><line x1="778.0" y1="-935.9" x2="941.2" y2="-986.6"/><line x1="912.9" y1="-926.8" x2="976.4" y2="-983.8"/><line x1="902.2" y1="-859.6" x2="947.4" y2="-750.2"/><line x1="828.7" y1="-739.2" x2="886.6" y2="-734.6"/><line x1="762.6" y1="-755.2" x2="567.3" y2="-819.7"/><line x1="556.0" y1="-1053.5" x2="941.2" y2="-1011.2"/><line x1="491.8" y1="-1075.8" x2="280.3" y2="-1242.4"/><line x1="85.1" y1="-810.6" x2="157.9" y2="-740.3"/><line x1="56.0" y1="-872.0" x2="-96.7" y2="-1297.6"/><line x1="43.1" y1="-1398.5" x2="507.4" y2="-854.6"/><line x1="-10.7" y1="-1440.0" x2="-88.1" y2="-1339.6"/><line x1="331.3" y1="-1329.3" x2="278.4" y2="-1284.4"/><line x1="227.6" y1="-1414.6" x2="331.3" y2="-1329.3"/><line x1="388.8" y1="-1285.1" x2="331.3" y2="-1329.3"/></g>
<polygon points="278.4,-1284.4 284.5,-1297.4 292.2,-1288.3" fill="#111111" stroke="none"/>
<circle cx="331.3" cy="-1329.3" r="3.2" fill="#111111"/>
<rect x="982.7" y="-1495.6" width="114.5" height="42.0" fill="#ffffff" stroke="#111111" stroke-width="1.8"/>
<rect x="941.2" y="-1025.8" width="117.2" height="42.0" fill="#ffffff" stroke="#111111" stroke-width="1.8"/>
<rect x="945.2" y="-1021.8" width="109.2" height="34.0" fill="none" stroke="#111111" stroke-width="1.4"/>
<rect x="483.3" y="-854.6" width="84.0" height="42.0" fill="#ffffff" stroke="#111111" stroke-width="1.8"/>
<rect x="886.6" y="-750.2" width="139.0" height="42.0" fill="#ffffff" stroke="#111111" stroke-width="1.8"/>
<rect x="890.6" y="-746.2" width="131.0" height="34.0" fill="none" stroke="#111111" stroke-width="1.4"/>
<rect x="211.6" y="-1284.4" width="84.0" height="42.0" fill="#ffffff" stroke="#111111" stroke-width="1.8"/>
<rect x="215.6" y="-1280.4" width="76.0" height="34.0" fill="none" stroke="#111111" stroke-width="1.4"/>
<rect x="148.1" y="-1456.6" width="108.0" height="42.0" fill="#ffffff" stroke="#111111" stroke-width="1.8"/>
<rect x="354.9" y="-1285.1" width="122.5" height="42.0" fill="#ffffff" stroke="#111111" stroke-width="1.8"/>
<rect x="132.0" y="-740.3" width="95.4" height="42.0" fill="#ffffff" stroke="#111111" stroke-width="1.8"/>
<rect x="-146.3" y="-1339.6" width="84.0" height="42.0" fill="#ffffff" stroke="#111111" stroke-width="1.8"/>
<polygon points="1037.5,-1288.0 1013.7,-1255.9 1055.5,-1252.4" fill="#ffffff" stroke="none"/>
<polygon points="1031.7,-1220.3 1013.7,-1255.9 1055.5,-1252.4" fill="#111111" stroke="none"/>
<polygon points="1037.5,-1288.0 1013.7,-1255.9 1031.7,-1220.3 1055.5,-1252.4" fill="none" stroke="#111111" stroke-width="1.8" stroke-linejoin="round"/>
<line x1="1013.7" y1="-1255.9" x2="1055.5" y2="-1252.4" stroke="#111111" stroke-width="1"/>
<polygon points="714.0,-912.8 753.1,-904.6 738.9,-944.1" fill="#111111" stroke="none"/>
<polygon points="778.0,-935.9 753.1,-904.6 738.9,-944.1" fill="#111111" stroke="none"/>
<polygon points="714.0,-912.8 753.1,-904.6 778.0,-935.9 738.9,-944.1" fill="none" stroke="#111111" stroke-width="1.8" stroke-linejoin="round"/>
<line x1="753.1" y1="-904.6" x2="738.9" y2="-944.1" stroke="#111111" stroke-width="1"/>
<polygon points="912.9,-926.8 886.8,-896.5 928.3,-889.9" fill="#ffffff" stroke="none"/>
<polygon points="902.2,-859.6 886.8,-896.5 928.3,-889.9" fill="#111111" stroke="none"/>
<polygon points="912.9,-926.8 886.8,-896.5 902.2,-859.6 928.3,-889.9" fill="none" stroke="#111111" stroke-width="1.8" stroke-linejoin="round"/>
<line x1="886.8" y1="-896.5" x2="928.3" y2="-889.9" stroke="#111111" stroke-width="1"/>
<polygon points="828.7,-739.2 800.6,-767.6 790.7,-726.8" fill="#111111" stroke="none"/>
<polygon points="762.6,-755.2 800.6,-767.6 790.7,-726.8" fill="#111111" stroke="none"/>
<polygon points="828.7,-739.2 800.6,-767.6 762.6,-755.2 790.7,-726.8" fill="none" stroke="#111111" stroke-width="1.8" stroke-linejoin="round"/>
<line x1="800.6" y1="-767.6" x2="790.7" y2="-726.8" stroke="#111111" stroke-width="1"/>
<polygon points="556.0,-1053.5 530.8,-1084.5 517.0,-1044.8" fill="#ffffff" stroke="none"/>
<polygon points="491.8,-1075.8 530.8,-1084.5 517.0,-1044.8" fill="#111111" stroke="none"/>
<polygon points="556.0,-1053.5 530.8,-1084.5 491.8,-1075.8 517.0,-1044.8" fill="none" stroke="#111111" stroke-width="1.8" stroke-linejoin="round"/>
<line x1="530.8" y1="-1084.5" x2="517.0" y2="-1044.8" stroke="#111111" stroke-width="1"/>
<polygon points="85.1,-810.6 89.5,-850.3 51.6,-832.3" fill="#ffffff" stroke="none"/>
<polygon points="56.0,-872.0 89.5,-850.3 51.6,-832.3" fill="#111111" stroke="none"/>
<polygon points="85.1,-810.6 89.5,-850.3 56.0,-872.0 51.6,-832.3" fill="none" stroke="#111111" stroke-width="1.8" stroke-linejoin="round"/>
<line x1="89.5" y1="-850.3" x2="51.6" y2="-832.3" stroke="#111111" stroke-width="1"/>
<polygon points="43.1,-1398.5 29.0,-1435.9 3.4,-1402.6" fill="#111111" stroke="none"/>
<polygon points="-10.7,-1440.0 29.0,-1435.9 3.4,-1402.6" fill="#111111" stroke="none"/>
<polygon points="43.1,-1398.5 29.0,-1435.9 -10.7,-1440.0 3.4,-1402.6" fill="none" stroke="#111111" stroke-width="1.8" stroke-linejoin="round"/>
<line x1="29.0" y1="-1435.9" x2="3.4" y2="-1402.6" stroke="#111111" stroke-width="1"/>
<ellipse cx="1157.3" cy="-1474.6" rx="34.2" ry="14.0" fill="#ffffff" stroke="#111111" stroke-width="1.4"/>
<ellipse cx="916.4" cy="-1474.6" rx="40.3" ry="14.0" fill="#ffffff" stroke="#111111" stroke-width="1.4"/>
<ellipse cx="1039.9" cy="-1535.6" rx="31.1" ry="14.0" fill="#ffffff" stroke="#111111" stroke-width="1.4"/>
<ellipse cx="1100.3" cy="-982.7" rx="43.0" ry="14.0" fill="#ffffff" stroke="#111111" stroke-width="1.4"/>
<ellipse cx="1015.9" cy="-944.7" rx="34.0" ry="14.0" fill="#ffffff" stroke="#111111" stroke-width="1.4"/>
<ellipse cx="1078.5" cy="-1050.2" rx="34.2" ry="14.0" fill="#ffffff" stroke="#111111" stroke-width="1.4"/>
<ellipse cx="559.2" cy="-740.4" rx="46.9" ry="14.0" fill="#ffffff" stroke="#111111" stroke-width="1.4"/>
<ellipse cx="486.1" cy="-777.6" rx="48.5" ry="14.0" fill="#ffffff" stroke="#111111" stroke-width="1.4"/>
<ellipse cx="486.1" cy="-777.6" rx="44.5" ry="10.0" fill="none" stroke="#111111" stroke-width="1.2"/>
<ellipse cx="541.4" cy="-893.7" rx="34.2" ry="14.0" fill="#ffffff" stroke="#111111" stroke-width="1.4"/>
<ellipse cx="1101.3" cy="-729.2" rx="49.6" ry="14.0" fill="#ffffff" stroke="#111111" stroke-width="1.4"/>
<ellipse cx="1045.5" cy="-682.9" rx="38.2" ry="14.0" fill="#ffffff" stroke="#111111" stroke-width="1.4"/>
<ellipse cx="973.0" cy="-633.2" rx="34.2" ry="14.0" fill="#ffffff" stroke="#111111" stroke-width="1.4"/>
<ellipse cx="928.9" cy="-670.9" rx="35.7" ry="14.0" fill="#ffffff" stroke="#111111" stroke-width="1.4"/>
<ellipse cx="1025.4" cy="-777.7" rx="41.7" ry="14.0" fill="#ffffff" stroke="#111111" stroke-width="1.4"/>
<ellipse cx="158.6" cy="-1263.4" rx="27.0" ry="14.0" fill="#ffffff" stroke="#111111" stroke-width="1.4"/>
<ellipse cx="142.3" cy="-1485.8" rx="32.4" ry="14.0" fill="#ffffff" stroke="#111111" stroke-width="1.4"/>
<ellipse cx="476.3" cy="-1213.6" rx="37.1" ry="14.0" fill="#ffffff" stroke="#111111" stroke-width="1.4"/>
<ellipse cx="461.7" cy="-1318.3" rx="35.7" ry="14.0" fill="#ffffff" stroke="#111111" stroke-width="1.4"/>
<ellipse cx="288.6" cy="-709.7" rx="36.3" ry="14.0" fill="#ffffff" stroke="#111111" stroke-width="1.4"/>
<ellipse cx="224.8" cy="-665.5" rx="27.0" ry="14.0" fill="#ffffff" stroke="#111111" stroke-width="1.4"/>
<ellipse cx="119.6" cy="-668.9" rx="35.7" ry="14.0" fill="#ffffff" stroke="#111111" stroke-width="1.4"/>
<ellipse cx="239.6" cy="-769.6" rx="34.3" ry="14.0" fill="#ffffff" stroke="#111111" stroke-width="1.4"/>
<ellipse cx="-7.8" cy="-1292.7" rx="35.6" ry="14.0" fill="#ffffff" stroke="#111111" stroke-width="1.4"/>
<ellipse cx="-149.5" cy="-1264.7" rx="28.4" ry="14.0" fill="#ffffff" stroke="#111111" stroke-width="1.4"/>
<ellipse cx="-204.0" cy="-1334.9" rx="37.5" ry="14.0" fill="#ffffff" stroke="#111111" stroke-width="1.4"/>
<ellipse cx="-185.3" cy="-1370.0" rx="32.8" ry="14.0" fill="#ffffff" stroke="#111111" stroke-width="1.4"/>
<ellipse cx="-115.0" cy="-1379.1" rx="27.0" ry="14.0" fill="#ffffff" stroke="#111111" stroke-width="1.4"/>
<ellipse cx="723.5" cy="-986.2" rx="55.5" ry="14.0" fill="#ffffff" stroke="#111111" stroke-width="1.4"/>
<rect x="1021.0" y="-1434.6" width="36.5" height="17" rx="3" fill="#ffffff" opacity="0.94"/><text x="1039.3" y="-1421.1" font-size="12" fill="#1e3a8a" text-anchor="middle" font-weight="700">(1,1)</text>
<text x="1048.2" y="-1292.2" font-size="11" fill="#111111" text-anchor="middle">1</text>
<rect x="988.1" y="-1062.5" width="37.8" height="17" rx="3" fill="#ffffff" opacity="0.94"/><text x="1007.1" y="-1049.0" font-size="12" fill="#1e3a8a" text-anchor="middle" font-weight="700">(1,N)</text>
<text x="1021.0" y="-1208.2" font-size="11" fill="#111111" text-anchor="middle">N</text>
<text x="980.7" y="-1035.2" font-size="11" font-weight="700" fill="#111111" text-anchor="middle">ID</text>
<rect x="574.2" y="-871.1" width="37.8" height="17" rx="3" fill="#ffffff" opacity="0.94"/><text x="593.1" y="-857.6" font-size="12" fill="#1e3a8a" text-anchor="middle" font-weight="700">(0,N)</text>
<text x="702.2" y="-915.2" font-size="11" fill="#111111" text-anchor="middle">N</text>
<rect x="895.6" y="-987.3" width="37.8" height="17" rx="3" fill="#ffffff" opacity="0.94"/><text x="914.5" y="-973.8" font-size="12" fill="#1e3a8a" text-anchor="middle" font-weight="700">(1,N)</text>
<text x="789.9" y="-925.5" font-size="11" fill="#111111" text-anchor="middle">N</text>
<rect x="937.4" y="-974.1" width="36.5" height="17" rx="3" fill="#ffffff" opacity="0.94"/><text x="955.6" y="-960.6" font-size="12" fill="#1e3a8a" text-anchor="middle" font-weight="700">(1,1)</text>
<text x="924.2" y="-930.1" font-size="11" fill="#111111" text-anchor="middle">1</text>
<text x="953.0" y="-990.9" font-size="11" font-weight="700" fill="#111111" text-anchor="middle">ID</text>
<rect x="917.8" y="-785.1" width="37.8" height="17" rx="3" fill="#ffffff" opacity="0.94"/><text x="936.7" y="-771.6" font-size="12" fill="#1e3a8a" text-anchor="middle" font-weight="700">(0,N)</text>
<text x="890.9" y="-848.3" font-size="11" fill="#111111" text-anchor="middle">N</text>
<text x="965.8" y="-764.6" font-size="11" font-weight="700" fill="#111111" text-anchor="middle">ID</text>
<rect x="843.4" y="-745.5" width="37.8" height="17" rx="3" fill="#ffffff" opacity="0.94"/><text x="862.3" y="-732.0" font-size="12" fill="#1e3a8a" text-anchor="middle" font-weight="700">(0,N)</text>
<text x="835.0" y="-723.3" font-size="11" fill="#111111" text-anchor="middle">N</text>
<rect x="575.0" y="-820.0" width="37.8" height="17" rx="3" fill="#ffffff" opacity="0.94"/><text x="593.9" y="-806.5" font-size="12" fill="#1e3a8a" text-anchor="middle" font-weight="700">(1,N)</text>
<text x="756.2" y="-763.0" font-size="11" fill="#111111" text-anchor="middle">N</text>
<rect x="895.2" y="-1023.3" width="36.5" height="17" rx="3" fill="#ffffff" opacity="0.94"/><text x="913.4" y="-1009.8" font-size="12" fill="#1e3a8a" text-anchor="middle" font-weight="700">(1,1)</text>
<text x="561.3" y="-1037.1" font-size="11" fill="#111111" text-anchor="middle">1</text>
<text x="933.9" y="-1032.1" font-size="11" font-weight="700" fill="#111111" text-anchor="middle">ID</text>
<rect x="283.4" y="-1234.1" width="37.8" height="17" rx="3" fill="#ffffff" opacity="0.94"/><text x="302.3" y="-1220.6" font-size="12" fill="#1e3a8a" text-anchor="middle" font-weight="700">(0,N)</text>
<text x="486.6" y="-1084.2" font-size="11" fill="#111111" text-anchor="middle">N</text>
<text x="303.0" y="-1251.1" font-size="11" font-weight="700" fill="#111111" text-anchor="middle">ID</text>
<rect x="119.6" y="-768.7" width="36.5" height="17" rx="3" fill="#ffffff" opacity="0.94"/><text x="137.8" y="-755.2" font-size="12" fill="#1e3a8a" text-anchor="middle" font-weight="700">(1,1)</text>
<text x="79.9" y="-794.2" font-size="11" fill="#111111" text-anchor="middle">1</text>
<rect x="-106.2" y="-1280.2" width="37.8" height="17" rx="3" fill="#ffffff" opacity="0.94"/><text x="-87.3" y="-1266.7" font-size="12" fill="#1e3a8a" text-anchor="middle" font-weight="700">(1,N)</text>
<text x="61.2" y="-880.5" font-size="11" fill="#111111" text-anchor="middle">N</text>
<rect x="470.3" y="-884.9" width="37.8" height="17" rx="3" fill="#ffffff" opacity="0.94"/><text x="489.2" y="-871.4" font-size="12" fill="#1e3a8a" text-anchor="middle" font-weight="700">(0,N)</text>
<text x="44.2" y="-1381.1" font-size="11" fill="#111111" text-anchor="middle">N</text>
<rect x="-89.9" y="-1370.8" width="37.8" height="17" rx="3" fill="#ffffff" opacity="0.94"/><text x="-71.0" y="-1357.3" font-size="12" fill="#1e3a8a" text-anchor="middle" font-weight="700">(0,N)</text>
<text x="-11.8" y="-1449.4" font-size="11" fill="#111111" text-anchor="middle">N</text>
<rect x="302.9" y="-1355.1" width="28.4" height="17" rx="3" fill="#ffffff" opacity="0.94"/><text x="317.1" y="-1341.6" font-size="12" fill="#111111" text-anchor="middle" font-weight="700">T,D</text>
<text x="1039.9" y="-1469.6" font-size="13" font-weight="700" text-anchor="middle" fill="#111111">PROVINCIA</text>
<text x="999.9" y="-999.8" font-size="13" font-weight="700" text-anchor="middle" fill="#111111">LOCALIDAD</text>
<text x="525.3" y="-828.6" font-size="13" font-weight="700" text-anchor="middle" fill="#111111">PLATO</text>
<text x="956.1" y="-724.2" font-size="13" font-weight="700" text-anchor="middle" fill="#111111">RESTAURANTE</text>
<text x="253.6" y="-1258.4" font-size="13" font-weight="700" text-anchor="middle" fill="#111111">VISITA</text>
<text x="202.1" y="-1430.6" font-size="13" font-weight="700" text-anchor="middle" fill="#111111">CULTURAL</text>
<text x="416.2" y="-1259.1" font-size="13" font-weight="700" text-anchor="middle" fill="#111111">INDUSTRIAL</text>
<text x="179.7" y="-714.3" font-size="13" font-weight="700" text-anchor="middle" fill="#111111">BODEGA</text>
<text x="-104.3" y="-1313.6" font-size="13" font-weight="700" text-anchor="middle" fill="#111111">VINO</text>
<text x="1108.2" y="-1243.4" font-size="12.5" font-weight="700" font-style="italic" text-anchor="middle" fill="#111111">pertenece a</text>
<text x="757.7" y="-887.3" font-size="12.5" font-weight="700" font-style="italic" text-anchor="middle" fill="#111111">es típico de</text>
<text x="957.0" y="-880.8" font-size="12.5" font-weight="700" font-style="italic" text-anchor="middle" fill="#111111">ubica</text>
<text x="803.7" y="-776.0" font-size="12.5" font-weight="700" font-style="italic" text-anchor="middle" fill="#111111">especializado en</text>
<text x="535.2" y="-1092.8" font-size="12.5" font-weight="700" font-style="italic" text-anchor="middle" fill="#111111">ofrece visita</text>
<text x="112.1" y="-856.5" font-size="12.5" font-weight="700" font-style="italic" text-anchor="middle" fill="#111111">ofrece</text>
<text x="38.4" y="-1443.6" font-size="12.5" font-weight="700" font-style="italic" text-anchor="middle" fill="#111111">aconseja</text>
<text x="1157.3" y="-1470.6" font-size="12" text-anchor="middle" fill="#111111">nombre</text>
<line x1="1134.1" y1="-1466.6" x2="1180.5" y2="-1466.6" stroke="#111111" stroke-width="1.3"/>
<text x="916.4" y="-1470.6" font-size="12" text-anchor="middle" fill="#111111">extensión</text>
<text x="1039.9" y="-1531.6" font-size="12" text-anchor="middle" fill="#111111">capital</text>
<text x="1100.3" y="-978.7" font-size="12" text-anchor="middle" fill="#111111">habitantes</text>
<text x="1015.9" y="-940.7" font-size="12" text-anchor="middle" fill="#111111">tamaño</text>
<text x="1078.5" y="-1046.2" font-size="12" text-anchor="middle" fill="#111111">nombre</text>
<line x1="1055.4" y1="-1042.2" x2="1101.7" y2="-1042.2" stroke="#111111" stroke-width="1.3" stroke-dasharray="4 3"/>
<text x="559.2" y="-736.4" font-size="12" text-anchor="middle" fill="#111111">preparación</text>
<text x="486.1" y="-773.6" font-size="12" text-anchor="middle" fill="#111111">ingredientes</text>
<text x="541.4" y="-889.7" font-size="12" text-anchor="middle" fill="#111111">nombre</text>
<line x1="518.2" y1="-885.7" x2="564.5" y2="-885.7" stroke="#111111" stroke-width="1.3"/>
<text x="1101.3" y="-725.2" font-size="12" text-anchor="middle" fill="#111111">precio_menú</text>
<text x="1045.5" y="-678.9" font-size="12" text-anchor="middle" fill="#111111">dirección</text>
<text x="973.0" y="-629.2" font-size="12" text-anchor="middle" fill="#111111">nombre</text>
<line x1="949.9" y1="-625.2" x2="996.2" y2="-625.2" stroke="#111111" stroke-width="1.3" stroke-dasharray="4 3"/>
<text x="928.9" y="-666.9" font-size="12" text-anchor="middle" fill="#111111">teléfono</text>
<text x="1025.4" y="-773.7" font-size="12" text-anchor="middle" fill="#111111">capacidad</text>
<text x="158.6" y="-1259.4" font-size="12" text-anchor="middle" fill="#111111">lugar</text>
<line x1="143.2" y1="-1255.4" x2="174.1" y2="-1255.4" stroke="#111111" stroke-width="1.3" stroke-dasharray="4 3"/>
<text x="142.3" y="-1481.8" font-size="12" text-anchor="middle" fill="#111111">horario</text>
<text x="476.3" y="-1209.6" font-size="12" text-anchor="middle" fill="#111111">contacto</text>
<text x="461.7" y="-1314.3" font-size="12" text-anchor="middle" fill="#111111">teléfono</text>
<text x="288.6" y="-705.7" font-size="12" text-anchor="middle" fill="#111111">dir_sede</text>
<text x="224.8" y="-661.5" font-size="12" text-anchor="middle" fill="#111111">cif</text>
<line x1="217.7" y1="-657.5" x2="231.9" y2="-657.5" stroke="#111111" stroke-width="1.3"/>
<text x="119.6" y="-664.9" font-size="12" text-anchor="middle" fill="#111111">teléfono</text>
<text x="239.6" y="-765.6" font-size="12" text-anchor="middle" fill="#111111">director</text>
<text x="-7.8" y="-1288.7" font-size="12" text-anchor="middle" fill="#111111">cosecha</text>
<text x="-149.5" y="-1260.7" font-size="12" text-anchor="middle" fill="#111111">grado</text>
<text x="-204.0" y="-1330.9" font-size="12" text-anchor="middle" fill="#111111">cód_vino</text>
<line x1="-230.5" y1="-1326.9" x2="-177.5" y2="-1326.9" stroke="#111111" stroke-width="1.3"/>
<text x="-185.3" y="-1366.0" font-size="12" text-anchor="middle" fill="#111111">textura</text>
<text x="-115.0" y="-1375.1" font-size="12" text-anchor="middle" fill="#111111">color</text>
<text x="723.5" y="-982.2" font-size="12" text-anchor="middle" fill="#111111">variación_local</text>
</svg>